<svg id="svg" version="1.1" xmlns="http://www.w3.org/2000/svg" xmlns:xlink="http://www.w3.org/1999/xlink" width="400" height="400" viewBox="0, 0, 400,400"><g id="svgg"><path id="path0" d="M232.222 107.436 C 228.995 108.256,224.707 110.315,222.916 111.905 C 222.229 112.515,221.917 112.890,222.222 112.739 C 222.595 112.556,222.545 112.730,222.072 113.270 C 221.284 114.168,220.758 114.390,221.481 113.519 C 221.735 113.213,221.789 112.963,221.602 112.963 C 220.922 112.963,216.664 117.948,216.669 118.739 C 216.670 118.923,217.085 118.574,217.591 117.963 C 218.429 116.952,218.410 117.047,217.381 119.018 C 216.307 121.075,215.057 124.649,214.706 126.667 L 214.545 127.593 214.495 126.613 C 214.439 125.524,215.805 120.755,216.331 120.204 C 216.781 119.732,216.760 119.158,216.304 119.440 C 215.510 119.930,213.582 127.416,211.476 138.183 C 209.321 149.196,208.913 151.853,209.630 150.185 C 209.920 149.508,209.950 149.503,209.974 150.127 C 209.989 150.510,210.365 150.905,210.831 151.027 C 211.608 151.231,211.591 151.263,210.568 151.537 C 209.833 151.734,209.369 151.681,209.153 151.378 C 208.923 151.054,208.878 151.083,208.993 151.481 C 209.084 151.797,209.457 151.977,209.855 151.897 C 210.240 151.821,214.552 151.723,219.437 151.680 L 228.319 151.603 228.795 149.968 C 229.205 148.558,229.965 144.997,230.526 141.852 C 232.266 132.110,235.738 113.457,236.280 110.938 C 237.277 106.306,237.139 106.187,232.222 107.436 M236.392 107.685 C 236.469 107.838,236.307 108.546,236.032 109.259 C 235.533 110.552,235.532 110.553,235.709 109.406 C 235.806 108.774,235.695 108.065,235.461 107.832 C 235.142 107.513,235.188 107.407,235.645 107.407 C 235.979 107.407,236.315 107.532,236.392 107.685 M226.517 110.569 C 225.518 111.065,224.392 111.749,224.015 112.091 C 223.637 112.432,223.242 112.625,223.137 112.520 C 222.773 112.155,227.026 109.633,227.963 109.659 C 228.167 109.664,227.516 110.074,226.517 110.569 M212.811 136.943 C 212.406 137.347,212.128 136.704,212.419 136.034 C 212.694 135.400,212.714 135.400,212.868 136.048 C 212.956 136.420,212.930 136.823,212.811 136.943 M212.257 139.002 C 211.964 139.296,211.852 139.199,211.852 138.654 C 211.852 137.675,212.370 137.155,212.535 137.969 C 212.605 138.315,212.480 138.779,212.257 139.002 M228.148 150.926 C 228.148 151.307,227.770 151.480,226.944 151.476 L 225.741 151.471 226.667 150.957 C 227.901 150.272,228.148 150.267,228.148 150.926 M224.352 150.996 C 223.995 151.089,223.412 151.089,223.056 150.996 C 222.699 150.903,222.991 150.827,223.704 150.827 C 224.417 150.827,224.708 150.903,224.352 150.996 M211.667 155.997 C 210.444 156.191,209.306 156.484,209.137 156.649 C 208.968 156.814,209.551 156.809,210.433 156.639 C 212.613 156.217,213.421 156.226,213.148 156.667 C 213.022 156.870,212.534 157.037,212.063 157.037 C 211.062 157.037,204.521 158.890,202.496 159.746 C 200.050 160.782,197.318 162.829,193.661 166.368 C 190.560 169.369,187.757 172.806,189.754 171.158 C 190.285 170.721,190.370 170.734,190.370 171.251 C 190.370 171.581,190.557 171.852,190.786 171.852 C 191.073 171.852,191.059 172.024,190.741 172.407 C 190.487 172.713,190.425 172.966,190.603 172.969 C 190.781 172.972,190.704 173.115,190.432 173.287 C 190.034 173.540,190.052 173.644,190.525 173.826 C 190.847 173.950,191.111 173.889,191.111 173.692 C 191.111 173.495,191.371 173.333,191.689 173.333 C 192.006 173.333,192.163 173.167,192.037 172.963 C 191.911 172.759,191.988 172.593,192.209 172.593 C 192.429 172.593,193.480 171.702,194.545 170.613 C 195.610 169.525,197.054 168.439,197.754 168.201 C 198.453 167.963,199.328 167.495,199.698 167.160 C 200.068 166.826,200.370 166.672,200.370 166.820 C 200.370 166.967,200.854 166.743,201.446 166.322 C 202.038 165.900,202.754 165.556,203.039 165.556 C 203.323 165.556,203.714 165.409,203.907 165.231 C 204.453 164.727,208.215 163.420,210.929 162.791 C 213.893 162.103,214.081 162.096,213.938 162.685 C 213.876 162.940,213.881 163.065,213.949 162.963 C 214.195 162.597,223.941 163.282,226.296 163.830 C 234.193 165.670,240.638 169.659,245.804 175.905 C 248.176 178.774,248.152 178.318,246.080 181.074 C 240.261 188.815,230.216 193.419,219.006 193.484 C 214.847 193.508,213.260 193.627,213.821 193.873 C 214.532 194.185,214.450 194.243,213.148 194.353 C 208.135 194.777,201.481 196.096,201.481 196.666 C 201.481 198.109,213.042 200.388,220.741 200.463 C 223.837 200.493,224.941 200.601,224.074 200.789 C 223.254 200.967,223.740 201.004,225.399 200.889 C 236.132 200.149,247.643 194.283,256.617 184.983 C 263.215 178.145,263.214 178.440,256.667 171.808 C 244.299 159.282,227.716 153.455,211.667 155.997 M231.697 157.407 C 231.986 157.407,232.222 157.585,232.222 157.803 C 232.222 158.257,230.758 157.904,230.185 157.311 C 229.933 157.050,230.030 157.004,230.493 157.168 C 230.866 157.300,231.408 157.407,231.697 157.407 M215.926 162.222 C 215.926 162.426,215.593 162.593,215.185 162.593 C 214.778 162.593,214.444 162.426,214.444 162.222 C 214.444 162.019,214.778 161.852,215.185 161.852 C 215.593 161.852,215.926 162.019,215.926 162.222 M208.704 164.074 C 207.760 164.480,208.734 164.480,210.000 164.074 C 210.744 163.836,210.781 163.775,210.185 163.767 C 209.778 163.761,209.111 163.899,208.704 164.074 M202.407 166.591 C 200.232 167.792,197.671 169.560,196.111 170.938 L 195.000 171.920 196.111 171.136 C 196.722 170.705,197.972 169.818,198.889 169.165 C 199.806 168.511,201.556 167.435,202.778 166.774 C 204.000 166.113,204.833 165.572,204.630 165.571 C 204.426 165.570,203.426 166.029,202.407 166.591 M196.667 186.667 C 197.380 187.267,198.111 187.762,198.292 187.768 C 198.472 187.773,197.991 187.278,197.222 186.667 C 195.420 185.235,194.965 185.235,196.667 186.667 M189.731 191.852 C 190.249 192.259,190.794 192.593,190.942 192.593 C 191.090 192.593,190.787 192.259,190.269 191.852 C 189.751 191.444,189.206 191.111,189.058 191.111 C 188.910 191.111,189.213 191.444,189.731 191.852 M193.704 194.201 C 193.704 194.448,199.297 197.493,199.457 197.333 C 199.529 197.261,198.264 196.487,196.646 195.613 C 195.028 194.739,193.704 194.103,193.704 194.201 M231.346 199.485 C 228.801 200.135,225.458 200.494,226.631 199.992 C 227.121 199.783,227.954 199.561,228.483 199.499 C 229.012 199.437,229.694 199.282,230.000 199.156 C 230.832 198.811,232.359 198.641,232.766 198.849 C 232.962 198.950,232.324 199.236,231.346 199.485 M215.524 201.228 C 215.691 201.395,216.475 201.475,217.266 201.406 L 218.704 201.281 216.962 201.102 C 216.004 201.004,215.357 201.060,215.524 201.228 M220.741 201.111 C 219.459 201.381,219.457 201.384,220.556 201.427 C 221.167 201.451,221.917 201.309,222.222 201.111 C 222.839 200.713,222.634 200.713,220.741 201.111 M199.660 264.598 C 199.938 264.873,203.680 264.962,203.942 264.700 C 204.083 264.559,203.142 264.444,201.852 264.444 C 200.562 264.444,199.576 264.513,199.660 264.598 M244.815 264.718 C 247.310 264.933,247.568 265.554,245.167 265.564 C 237.870 265.596,231.145 270.812,231.259 276.350 C 231.280 277.339,231.140 278.200,230.950 278.264 C 230.661 278.360,231.366 282.696,232.090 285.278 C 232.349 286.200,231.582 286.085,231.287 285.157 C 231.153 284.735,230.963 284.469,230.865 284.567 C 230.767 284.666,230.973 285.303,231.324 285.984 C 232.185 287.655,233.761 289.696,234.004 289.453 C 234.112 289.345,233.810 288.840,233.332 288.332 C 232.144 287.067,232.861 287.192,234.415 288.521 C 235.468 289.421,235.578 289.644,235.066 289.841 C 234.338 290.120,234.544 290.573,235.669 291.163 C 236.476 291.586,236.477 291.584,235.776 290.795 C 235.172 290.115,235.156 290.000,235.661 290.000 C 235.987 290.000,236.367 290.185,236.507 290.412 C 236.938 291.110,240.691 292.593,242.026 292.593 C 242.721 292.593,243.408 292.784,243.553 293.018 C 243.870 293.532,240.287 293.142,239.163 292.541 C 238.774 292.333,238.363 292.254,238.250 292.367 C 238.138 292.480,238.527 292.762,239.115 292.995 C 240.353 293.484,245.763 293.881,244.657 293.402 C 243.701 292.988,244.643 292.593,246.586 292.593 C 248.043 292.593,247.864 293.134,246.296 293.468 C 245.787 293.576,246.218 293.601,247.253 293.524 C 249.287 293.372,253.380 291.897,253.600 291.237 C 253.674 291.014,252.720 291.330,251.479 291.940 C 250.238 292.550,249.111 292.938,248.974 292.801 C 248.638 292.465,249.636 291.878,250.185 292.088 C 250.425 292.180,250.836 291.998,251.097 291.684 C 251.358 291.369,251.802 291.111,252.082 291.111 C 252.363 291.111,252.593 290.961,252.593 290.777 C 252.593 290.594,253.146 290.117,253.823 289.717 L 255.054 288.991 255.010 284.083 C 254.971 279.736,254.886 279.116,254.269 278.665 C 253.500 278.102,253.500 278.101,254.815 277.500 C 255.550 277.163,254.557 277.091,250.000 277.149 L 244.259 277.222 244.147 279.383 C 243.990 282.415,244.292 282.672,247.846 282.526 L 250.742 282.407 250.742 284.907 C 250.741 286.282,250.897 287.407,251.088 287.407 C 251.279 287.407,251.342 286.833,251.228 286.132 C 251.003 284.744,251.356 282.222,251.776 282.222 C 251.920 282.222,252.080 283.229,252.133 284.459 C 252.268 287.591,250.545 288.907,245.556 289.486 C 243.466 289.728,236.913 287.284,237.657 286.540 C 237.796 286.402,237.588 286.054,237.196 285.767 C 236.804 285.480,236.570 285.159,236.676 285.053 C 236.782 284.946,237.596 285.511,238.484 286.307 C 241.318 288.847,247.083 289.801,249.163 288.074 C 249.482 287.809,249.801 287.634,249.872 287.685 C 250.200 287.922,250.762 287.742,250.586 287.457 C 250.477 287.280,249.208 287.483,247.765 287.908 C 243.133 289.272,236.923 286.377,236.136 282.487 C 235.476 279.226,235.128 276.040,235.492 276.594 C 235.716 276.935,235.993 276.599,236.428 275.459 C 237.088 273.731,238.743 271.936,240.556 270.984 C 241.559 270.457,241.586 270.399,240.833 270.385 C 240.375 270.377,240.000 270.497,240.000 270.652 C 240.000 271.020,238.498 271.955,238.271 271.728 C 238.016 271.473,239.342 270.008,239.654 270.200 C 239.798 270.289,240.122 270.114,240.374 269.811 C 240.965 269.098,241.852 269.100,241.852 269.815 C 241.852 270.120,242.113 270.370,242.432 270.370 C 242.844 270.370,242.945 270.155,242.778 269.630 C 242.643 269.205,242.711 268.889,242.938 268.889 C 243.155 268.889,243.333 269.139,243.333 269.444 C 243.333 269.832,243.724 270.000,244.630 270.000 C 245.535 270.000,245.926 269.832,245.926 269.444 C 245.926 269.139,246.104 268.889,246.321 268.889 C 246.539 268.889,246.622 269.188,246.506 269.553 C 246.336 270.088,246.620 270.303,247.971 270.665 C 248.893 270.911,250.307 271.529,251.113 272.038 C 253.044 273.257,253.072 273.250,254.406 271.171 C 255.855 268.913,255.847 268.801,254.167 267.531 C 251.564 265.565,247.740 263.986,248.866 265.343 C 249.129 265.659,249.491 265.826,249.672 265.715 C 249.852 265.603,250.000 265.692,250.000 265.911 C 250.000 266.534,248.035 265.941,247.455 265.143 C 247.058 264.597,246.531 264.459,245.047 264.509 L 243.148 264.574 244.815 264.718 M104.358 265.083 C 105.024 265.166,106.024 265.164,106.581 265.079 C 107.137 264.995,106.593 264.928,105.370 264.930 C 104.148 264.932,103.693 265.001,104.358 265.083 M117.500 265.080 C 118.060 265.165,118.977 265.165,119.537 265.080 C 120.097 264.995,119.639 264.926,118.519 264.926 C 117.398 264.926,116.940 264.995,117.500 265.080 M131.574 265.070 C 131.931 265.163,132.514 265.163,132.870 265.070 C 133.227 264.977,132.935 264.901,132.222 264.901 C 131.509 264.901,131.218 264.977,131.574 265.070 M150.278 265.076 C 150.736 265.164,151.486 265.164,151.944 265.076 C 152.403 264.988,152.028 264.916,151.111 264.916 C 150.194 264.916,149.819 264.988,150.278 265.076 M164.740 265.091 C 166.430 265.159,169.097 265.159,170.666 265.090 C 172.235 265.021,170.852 264.964,167.593 264.965 C 164.333 264.965,163.050 265.022,164.740 265.091 M205.093 265.076 C 206.899 265.424,205.769 265.769,202.815 265.771 C 201.103 265.773,199.478 265.952,199.203 266.169 C 198.929 266.387,198.234 266.677,197.659 266.814 C 194.627 267.540,192.742 270.162,192.824 273.540 C 192.910 277.076,194.242 278.413,199.815 280.553 C 200.754 280.914,200.923 281.052,200.278 280.932 C 197.498 280.411,197.247 280.393,198.519 280.803 C 200.087 281.310,204.345 282.776,205.370 283.163 C 205.979 283.393,206.029 283.354,205.648 282.943 C 204.947 282.187,205.091 281.787,206.019 281.919 C 206.477 281.984,206.835 282.204,206.815 282.407 C 206.795 282.611,207.029 282.961,207.336 283.185 C 208.574 284.090,207.483 288.376,205.926 288.726 C 205.824 288.749,205.407 288.920,205.000 289.106 C 203.372 289.850,198.324 289.472,196.795 288.492 C 193.817 286.583,193.317 286.423,192.752 287.194 C 192.474 287.575,192.325 288.015,192.422 288.171 C 192.518 288.327,192.388 288.543,192.132 288.650 C 191.824 288.778,192.037 289.159,192.763 289.776 C 193.366 290.289,193.930 290.638,194.016 290.552 C 194.101 290.466,194.858 290.794,195.697 291.281 C 197.313 292.218,201.109 293.083,202.039 292.726 C 202.343 292.609,202.593 292.686,202.593 292.898 C 202.593 293.109,202.218 293.367,201.759 293.471 C 201.301 293.576,202.040 293.607,203.402 293.542 C 206.779 293.379,212.852 290.146,210.620 289.699 C 210.063 289.588,210.153 288.583,210.760 288.148 C 211.632 287.522,211.710 284.568,210.886 283.318 C 210.422 282.613,210.033 281.858,210.021 281.639 C 209.994 281.126,208.619 279.924,207.315 279.272 C 206.755 278.993,206.296 278.638,206.296 278.485 C 206.296 278.332,205.798 278.098,205.189 277.964 C 204.581 277.830,203.987 277.567,203.871 277.379 C 203.573 276.896,204.112 276.953,205.937 277.597 C 206.809 277.904,207.597 278.082,207.688 277.991 C 207.850 277.829,203.210 276.340,200.112 275.559 C 199.189 275.326,198.233 274.758,197.757 274.158 C 197.128 273.365,196.985 273.301,197.089 273.859 C 197.162 274.250,197.921 274.940,198.776 275.392 C 199.631 275.844,200.235 276.308,200.119 276.424 C 199.895 276.648,197.599 275.522,196.667 274.731 C 196.051 274.208,195.047 271.723,195.587 272.056 C 195.773 272.172,195.926 272.037,195.926 271.758 C 195.926 271.150,197.574 269.603,198.953 268.916 C 200.068 268.362,204.815 269.008,204.815 269.715 C 204.815 269.919,204.481 269.999,204.074 269.893 C 203.667 269.786,203.333 269.850,203.333 270.035 C 203.333 270.219,203.560 270.370,203.837 270.370 C 204.114 270.370,205.322 270.868,206.522 271.477 C 207.722 272.085,208.895 272.585,209.128 272.588 C 209.569 272.593,211.852 269.286,211.852 268.641 C 211.852 267.648,206.453 264.732,204.861 264.865 C 204.530 264.893,204.634 264.988,205.093 265.076 M219.630 265.213 C 219.630 265.445,220.289 265.585,221.204 265.549 C 223.798 265.446,223.743 265.408,223.626 267.222 C 223.567 268.138,223.385 268.888,223.222 268.889 C 223.058 268.889,222.962 269.805,223.007 270.924 C 223.053 272.044,222.978 273.072,222.841 273.208 C 222.704 273.345,222.593 271.836,222.593 269.855 L 222.593 266.254 221.019 266.368 L 219.444 266.481 219.412 269.444 C 219.362 273.943,219.165 276.590,218.842 277.113 C 218.681 277.373,218.585 274.803,218.627 271.404 C 218.669 268.004,218.577 265.349,218.421 265.504 C 218.266 265.660,218.183 271.943,218.236 279.468 L 218.333 293.148 221.111 293.148 L 223.889 293.148 223.986 279.488 C 224.056 269.714,223.964 265.684,223.663 265.321 C 223.159 264.714,219.630 264.619,219.630 265.213 M239.815 265.185 L 239.074 265.503 239.815 265.493 C 240.222 265.487,240.972 265.348,241.481 265.185 L 242.407 264.889 241.481 264.878 C 240.972 264.872,240.222 265.010,239.815 265.185 M263.201 265.370 C 262.476 266.096,262.282 291.958,262.996 292.817 C 263.519 293.447,266.843 293.549,266.457 292.923 C 266.300 292.669,265.658 292.600,264.768 292.742 C 263.243 292.986,262.796 292.146,263.704 290.741 C 263.984 290.307,264.064 290.406,264.068 291.193 C 264.074 292.193,265.487 292.374,267.685 291.656 C 267.946 291.571,268.148 291.811,268.148 292.207 C 268.148 292.593,267.895 292.987,267.585 293.083 C 267.191 293.206,267.219 293.240,267.678 293.198 C 268.270 293.145,268.343 292.574,268.435 287.310 L 268.537 281.481 274.815 281.481 L 281.092 281.481 281.194 287.315 L 281.296 293.148 282.360 293.270 C 282.945 293.337,283.570 293.245,283.748 293.066 C 283.935 292.880,283.536 292.804,282.813 292.889 L 281.553 293.036 281.610 287.012 C 281.648 282.919,281.800 280.943,282.084 280.848 C 282.748 280.627,282.879 281.492,282.571 284.061 C 282.290 286.409,282.372 288.809,282.804 290.833 C 282.994 291.724,283.196 291.852,284.404 291.852 L 285.786 291.852 285.763 279.167 L 285.741 266.481 284.648 266.357 C 283.220 266.195,282.593 267.068,282.593 269.219 C 282.593 271.730,281.862 270.618,281.495 267.548 C 281.225 265.291,281.188 265.592,281.169 270.185 C 281.157 273.037,281.140 275.661,281.130 276.016 C 281.116 276.482,280.878 276.619,280.278 276.507 C 279.819 276.421,276.986 276.339,273.981 276.324 L 268.519 276.296 268.519 271.376 C 268.519 265.933,268.771 266.451,266.019 266.258 L 265.000 266.186 266.111 265.722 C 266.842 265.416,267.443 265.376,267.870 265.605 C 268.259 265.813,268.519 265.816,268.519 265.612 C 268.519 264.722,264.052 264.519,263.201 265.370 M282.091 265.273 C 282.209 265.463,283.245 265.563,284.393 265.494 L 286.481 265.370 286.572 277.222 C 286.622 283.741,286.720 289.657,286.790 290.370 C 286.860 291.083,286.903 285.667,286.885 278.333 L 286.852 265.000 284.365 264.963 C 282.908 264.942,281.966 265.070,282.091 265.273 M291.935 265.402 C 291.432 265.948,291.383 269.895,291.875 270.199 C 292.028 270.294,292.107 269.413,292.051 268.241 C 291.995 267.070,292.118 265.899,292.324 265.639 C 292.847 264.980,292.512 264.776,291.935 265.402 M292.963 265.185 C 292.963 265.399,294.290 265.575,296.111 265.602 C 300.609 265.668,302.326 266.226,298.488 266.374 C 296.751 266.441,295.218 266.520,293.426 266.637 C 292.421 266.702,292.872 269.259,293.889 269.259 C 294.398 269.259,294.815 269.426,294.815 269.630 C 294.815 269.833,294.408 270.000,293.911 270.000 C 293.414 270.000,292.928 270.128,292.831 270.284 C 292.735 270.439,294.475 270.505,296.698 270.429 L 300.741 270.291 300.741 281.503 C 300.741 287.670,300.819 292.637,300.915 292.541 C 301.011 292.445,301.105 287.834,301.123 282.295 C 301.142 276.279,301.296 272.222,301.504 272.222 C 301.695 272.222,301.852 272.889,301.852 273.704 C 301.852 274.565,302.028 275.185,302.274 275.185 C 302.571 275.185,302.621 275.869,302.445 277.500 C 301.820 283.273,301.658 291.054,302.153 291.556 C 302.512 291.920,305.102 292.059,305.429 291.731 C 305.578 291.583,305.672 289.341,305.639 286.749 C 305.606 284.157,305.720 281.454,305.891 280.741 C 306.097 279.888,306.200 281.697,306.194 286.024 C 306.189 289.643,306.293 292.713,306.426 292.845 C 306.558 292.978,306.667 287.975,306.667 281.728 L 306.667 270.370 311.296 270.370 L 315.926 270.370 315.926 267.817 C 315.926 265.831,315.796 265.215,315.340 265.040 C 314.306 264.643,292.963 264.782,292.963 265.185 M153.448 267.593 C 153.450 268.815,153.519 269.270,153.602 268.604 C 153.684 267.939,153.682 266.939,153.598 266.382 C 153.513 265.826,153.446 266.370,153.448 267.593 M236.722 266.669 C 235.877 267.281,235.185 267.885,235.185 268.011 C 235.185 268.136,235.394 268.071,235.648 267.865 C 235.903 267.660,236.759 267.056,237.552 266.524 C 238.344 265.991,238.827 265.556,238.626 265.556 C 238.424 265.556,237.568 266.057,236.722 266.669 M264.815 265.926 C 264.815 266.130,264.648 266.296,264.444 266.296 C 264.241 266.296,264.062 266.588,264.048 266.944 C 264.026 267.499,263.976 267.485,263.704 266.852 C 263.220 265.727,263.270 265.556,264.074 265.556 C 264.481 265.556,264.815 265.722,264.815 265.926 M313.704 265.926 C 313.704 266.145,312.346 266.296,310.370 266.296 C 308.395 266.296,307.037 266.145,307.037 265.926 C 307.037 265.706,308.395 265.556,310.370 265.556 C 312.346 265.556,313.704 265.706,313.704 265.926 M129.045 273.333 C 129.045 277.509,129.099 279.218,129.165 277.130 C 129.231 275.042,129.231 271.625,129.165 269.537 C 129.099 267.449,129.045 269.157,129.045 273.333 M160.907 278.519 C 160.907 285.546,160.957 288.421,161.018 284.907 C 161.079 281.394,161.079 275.644,161.018 272.130 C 160.957 268.616,160.907 271.491,160.907 278.519 M209.479 267.124 C 211.280 268.201,212.089 269.259,211.111 269.259 C 210.907 269.259,210.741 269.034,210.741 268.758 C 210.741 268.482,209.782 267.737,208.611 267.101 C 207.440 266.466,206.705 265.941,206.979 265.936 C 207.253 265.930,208.378 266.465,209.479 267.124 M254.283 268.013 C 255.368 268.723,255.425 269.390,254.481 270.334 C 254.094 270.721,253.666 271.388,253.530 271.815 C 253.207 272.834,252.645 272.796,251.331 271.666 C 250.403 270.868,250.355 270.741,250.979 270.741 C 251.378 270.741,251.916 270.949,252.176 271.204 C 252.640 271.659,254.438 270.004,254.443 269.118 C 254.445 268.633,253.099 267.553,251.843 267.033 C 251.237 266.782,250.741 266.433,250.741 266.258 C 250.741 265.952,252.371 266.759,254.283 268.013 M83.444 268.889 C 83.444 270.009,83.514 270.468,83.599 269.907 C 83.683 269.347,83.683 268.431,83.599 267.870 C 83.514 267.310,83.444 267.769,83.444 268.889 M147.547 271.852 C 147.547 274.194,147.608 275.153,147.681 273.981 C 147.755 272.810,147.755 270.894,147.681 269.722 C 147.608 268.551,147.547 269.509,147.547 271.852 M233.021 269.837 C 231.433 271.640,229.969 275.263,230.044 277.202 C 230.077 278.059,230.158 277.910,230.382 276.585 C 230.772 274.265,232.200 271.213,233.687 269.520 C 234.349 268.766,234.805 268.148,234.699 268.148 C 234.594 268.148,233.839 268.908,233.021 269.837 M263.974 273.807 C 263.897 274.667,263.834 273.870,263.835 272.037 C 263.836 270.204,263.900 269.500,263.976 270.474 C 264.053 271.448,264.052 272.948,263.974 273.807 M200.556 269.630 C 199.997 269.870,200.224 269.948,201.481 269.948 C 202.739 269.948,202.966 269.870,202.407 269.630 C 202.000 269.455,201.583 269.311,201.481 269.311 C 201.380 269.311,200.963 269.455,200.556 269.630 M197.650 270.677 C 197.313 271.050,197.042 271.508,197.048 271.696 C 197.054 271.883,197.235 271.735,197.450 271.365 C 197.665 270.996,198.202 270.548,198.643 270.370 C 199.185 270.151,199.254 270.039,198.854 270.023 C 198.529 270.011,197.987 270.305,197.650 270.677 M208.981 271.560 C 209.338 271.487,209.630 271.606,209.630 271.825 C 209.630 272.567,208.176 272.227,207.770 271.389 C 207.430 270.687,207.443 270.645,207.850 271.125 C 208.116 271.438,208.625 271.634,208.981 271.560 M237.373 272.820 C 236.831 273.473,236.568 273.281,236.882 272.463 C 237.010 272.129,237.272 271.953,237.464 272.072 C 237.673 272.201,237.636 272.503,237.373 272.820 M89.353 273.519 C 89.357 274.333,89.433 274.623,89.521 274.162 C 89.610 273.702,89.606 273.035,89.514 272.681 C 89.421 272.327,89.349 272.704,89.353 273.519 M306.296 274.074 C 306.296 274.889,306.130 275.556,305.926 275.556 C 305.722 275.556,305.556 274.889,305.556 274.074 C 305.556 273.259,305.722 272.593,305.926 272.593 C 306.130 272.593,306.296 273.259,306.296 274.074 M236.188 274.801 C 235.961 275.404,235.705 275.828,235.620 275.744 C 235.356 275.480,235.923 273.704,236.271 273.704 C 236.453 273.704,236.416 274.197,236.188 274.801 M191.511 274.555 C 191.473 275.420,192.364 277.132,193.202 277.805 C 193.735 278.233,193.715 278.123,193.094 277.222 C 192.673 276.611,192.151 275.611,191.934 275.000 C 191.695 274.325,191.528 274.151,191.511 274.555 M134.604 283.889 C 134.604 288.778,134.657 290.727,134.721 288.220 C 134.785 285.712,134.785 281.712,134.721 279.331 C 134.656 276.949,134.604 279.000,134.604 283.889 M282.491 276.296 C 282.549 277.075,282.056 277.297,281.667 276.667 C 281.417 276.262,281.734 275.556,282.165 275.556 C 282.314 275.556,282.460 275.889,282.491 276.296 M306.291 276.389 C 306.278 277.446,305.567 277.987,305.561 276.944 C 305.558 276.384,305.722 275.926,305.926 275.926 C 306.130 275.926,306.294 276.134,306.291 276.389 M271.451 277.275 C 271.535 277.348,271.087 277.407,270.454 277.407 C 269.821 277.407,269.202 277.243,269.078 277.043 C 268.873 276.712,271.040 276.925,271.451 277.275 M281.619 277.512 C 282.179 277.921,282.060 277.967,280.762 277.843 C 279.933 277.764,279.162 277.550,279.050 277.368 C 278.734 276.856,280.887 276.977,281.619 277.512 M147.534 280.185 C 147.536 281.815,147.601 282.435,147.679 281.564 C 147.757 280.693,147.756 279.360,147.677 278.601 C 147.597 277.843,147.533 278.556,147.534 280.185 M245.580 278.272 C 245.363 278.489,245.185 279.217,245.185 279.889 L 245.185 281.111 247.469 281.111 C 250.372 281.111,250.154 281.315,246.943 281.601 L 244.441 281.824 244.490 279.663 C 244.534 277.718,244.611 277.520,245.257 277.689 C 245.765 277.822,245.860 277.992,245.580 278.272 M256.075 282.963 C 256.075 286.120,256.132 287.412,256.201 285.833 C 256.271 284.255,256.271 281.671,256.201 280.093 C 256.132 278.514,256.075 279.806,256.075 282.963 M250.741 278.139 C 250.741 278.352,249.849 278.519,248.704 278.519 C 247.583 278.519,246.667 278.378,246.667 278.205 C 246.667 278.033,247.583 277.862,248.704 277.826 C 249.892 277.787,250.741 277.917,250.741 278.139 M208.148 278.258 C 208.148 278.333,208.856 278.952,209.722 279.632 C 211.104 280.719,211.183 280.745,210.370 279.846 C 209.526 278.912,208.148 277.927,208.148 278.258 M153.486 285.741 C 153.487 289.407,153.542 290.857,153.610 288.963 C 153.677 287.068,153.677 284.068,153.609 282.296 C 153.541 280.524,153.486 282.074,153.486 285.741 M235.544 281.548 C 235.536 281.855,235.329 281.769,234.988 281.318 C 234.277 280.378,234.286 279.789,235.000 280.503 C 235.306 280.808,235.550 281.278,235.544 281.548 M281.667 280.370 C 281.541 280.574,280.989 280.724,280.441 280.704 L 279.444 280.667 280.370 280.370 C 281.685 279.949,281.927 279.949,281.667 280.370 M271.389 280.626 C 271.032 280.719,270.449 280.719,270.093 280.626 C 269.736 280.533,270.028 280.456,270.741 280.456 C 271.454 280.456,271.745 280.533,271.389 280.626 M204.815 281.968 C 204.815 282.151,204.549 282.200,204.225 282.075 C 203.900 281.951,203.234 281.748,202.743 281.625 C 202.253 281.502,201.852 281.276,201.852 281.122 C 201.852 280.969,202.519 281.022,203.333 281.239 C 204.148 281.457,204.815 281.785,204.815 281.968 M219.346 288.317 L 219.444 291.635 220.899 291.936 C 221.892 292.142,222.438 292.103,222.617 291.812 C 222.945 291.281,223.704 291.711,223.704 292.429 C 223.704 292.843,223.124 292.963,221.131 292.963 L 218.559 292.963 218.575 289.722 C 218.607 282.926,219.157 281.926,219.346 288.317 M206.302 284.043 C 206.305 284.162,206.460 284.499,206.645 284.793 C 207.410 286.002,205.653 287.902,203.148 288.576 C 202.239 288.820,202.333 288.847,203.668 288.724 C 205.781 288.529,207.026 287.331,207.211 285.312 C 207.311 284.213,207.210 283.827,206.821 283.827 C 206.533 283.827,206.299 283.924,206.302 284.043 M263.974 288.426 C 263.894 289.190,263.828 288.565,263.828 287.037 C 263.828 285.509,263.894 284.884,263.974 285.648 C 264.053 286.412,264.053 287.662,263.974 288.426 M192.342 286.019 C 191.300 287.176,190.998 287.778,191.460 287.778 C 191.675 287.778,191.852 287.613,191.852 287.412 C 191.852 285.735,193.513 285.291,195.284 286.495 C 196.045 287.011,196.667 287.292,196.667 287.119 C 196.667 286.777,194.010 285.185,193.440 285.185 C 193.249 285.185,192.754 285.560,192.342 286.019 M194.012 288.208 C 194.374 288.684,194.380 288.885,194.035 289.098 C 193.752 289.273,193.686 289.217,193.854 288.946 C 193.999 288.711,193.941 288.519,193.726 288.519 C 193.510 288.519,193.333 288.241,193.333 287.901 C 193.333 287.562,193.380 287.353,193.438 287.438 C 193.496 287.523,193.754 287.869,194.012 288.208 M197.783 287.937 C 198.091 288.248,198.924 288.591,199.635 288.699 C 200.937 288.898,200.870 288.849,198.519 287.897 C 197.357 287.427,197.281 287.431,197.783 287.937 M208.720 291.455 C 208.248 292.219,207.100 292.626,206.815 292.131 C 206.668 291.875,206.672 291.778,206.823 291.914 C 206.975 292.049,207.432 291.827,207.840 291.420 C 208.577 290.682,209.183 290.706,208.720 291.455 M192.963 291.304 C 192.963 291.704,196.829 293.279,198.333 293.493 C 199.423 293.647,199.129 293.476,197.222 292.844 C 195.796 292.373,194.255 291.784,193.796 291.536 C 193.338 291.288,192.963 291.183,192.963 291.304 M285.741 292.963 L 284.630 293.246 285.626 293.290 C 286.174 293.314,286.726 293.167,286.852 292.963 C 286.978 292.759,287.029 292.612,286.966 292.636 C 286.903 292.661,286.352 292.807,285.741 292.963 M302.500 293.231 C 303.162 293.313,304.245 293.313,304.907 293.231 C 305.569 293.149,305.028 293.082,303.704 293.082 C 302.380 293.082,301.838 293.149,302.500 293.231 " stroke="none" fill="#6a8db7" fill-rule="evenodd"></path><path id="path1" d="M176.481 112.793 L 174.630 113.293 176.603 113.089 L 178.576 112.886 178.379 114.684 L 178.182 116.481 178.588 114.907 C 178.811 114.042,179.137 113.333,179.312 113.333 C 179.487 113.333,179.627 113.042,179.624 112.685 C 179.619 112.131,179.566 112.118,179.259 112.593 C 179.020 112.963,178.898 112.994,178.895 112.685 C 178.888 112.144,178.888 112.144,176.481 112.793 M172.049 113.924 C 171.240 114.220,170.357 114.376,170.085 114.272 C 169.813 114.168,169.682 114.230,169.793 114.410 C 170.040 114.809,168.958 115.272,168.476 114.974 C 168.286 114.856,168.176 114.916,168.232 115.106 C 168.288 115.297,166.962 116.473,165.285 117.719 C 163.609 118.966,161.756 120.650,161.168 121.462 C 160.580 122.274,159.984 122.824,159.845 122.684 C 159.705 122.544,159.711 122.744,159.858 123.128 C 160.059 123.650,160.003 123.749,159.635 123.522 C 159.327 123.331,159.234 123.363,159.385 123.607 C 159.517 123.821,159.219 124.888,158.723 125.979 C 158.227 127.070,157.488 129.546,157.081 131.481 C 156.674 133.417,155.840 137.333,155.229 140.185 C 151.326 158.388,150.835 161.855,152.177 161.753 C 152.581 161.723,152.814 161.540,152.694 161.346 C 152.568 161.142,152.827 161.086,153.312 161.213 C 153.771 161.333,154.042 161.326,153.914 161.198 C 153.786 161.069,154.061 160.737,154.525 160.460 C 155.452 159.906,154.013 159.984,152.500 160.569 C 151.551 160.936,153.179 149.306,154.471 146.481 C 154.658 146.074,155.480 142.157,156.299 137.778 C 158.446 126.288,159.258 124.348,163.925 119.571 C 165.644 117.810,170.203 114.875,171.667 114.587 C 171.870 114.547,172.620 114.255,173.333 113.938 C 174.964 113.214,174.016 113.203,172.049 113.924 M177.037 121.667 C 176.784 123.009,176.651 124.182,176.743 124.274 C 176.835 124.366,177.113 123.338,177.361 121.991 C 177.609 120.643,177.742 119.470,177.655 119.383 C 177.568 119.297,177.290 120.324,177.037 121.667 M174.491 133.944 C 173.808 136.564,173.613 138.148,173.974 138.148 C 174.359 138.148,175.384 133.038,175.062 132.717 C 174.953 132.607,174.696 133.160,174.491 133.944 M173.580 138.765 C 173.196 139.150,173.290 140.370,173.704 140.370 C 173.907 140.370,174.074 139.954,174.074 139.444 C 174.074 138.475,173.989 138.357,173.580 138.765 M172.958 141.500 C 172.955 141.999,172.852 142.782,172.730 143.241 C 172.607 143.699,172.670 144.074,172.871 144.074 C 173.378 144.074,173.766 141.396,173.324 140.953 C 173.090 140.719,172.961 140.911,172.958 141.500 M172.222 145.729 C 172.222 146.060,172.439 146.190,172.776 146.061 C 173.080 145.944,173.237 145.699,173.124 145.517 C 172.801 144.994,172.222 145.130,172.222 145.729 M170.918 152.661 C 170.408 156.391,170.479 156.340,163.716 157.800 C 161.787 158.216,160.134 158.631,160.043 158.723 C 159.773 158.992,160.207 158.926,163.615 158.181 C 165.395 157.792,167.571 157.379,168.449 157.263 C 169.327 157.147,170.179 156.970,170.341 156.870 C 170.686 156.657,171.630 151.136,171.366 150.872 C 171.268 150.774,171.066 151.579,170.918 152.661 M187.037 158.805 C 187.037 158.980,186.454 159.078,185.741 159.022 C 185.028 158.966,184.444 159.043,184.444 159.192 C 184.444 159.342,183.756 159.398,182.914 159.318 C 181.775 159.209,181.456 159.288,181.664 159.626 C 181.873 159.963,181.657 160.016,180.818 159.832 C 180.199 159.696,179.386 159.750,179.013 159.952 C 178.639 160.155,175.833 160.761,172.778 161.299 C 163.133 162.998,152.156 165.641,151.913 166.323 C 151.844 166.514,151.636 166.577,151.450 166.462 C 151.264 166.347,151.111 166.439,151.111 166.667 C 151.111 166.894,150.944 166.978,150.741 166.852 C 150.537 166.726,150.370 166.777,150.370 166.965 C 150.370 167.153,149.606 167.599,148.671 167.956 C 146.912 168.628,142.222 172.675,142.222 173.521 C 142.222 173.782,141.976 174.089,141.675 174.205 C 141.172 174.398,139.398 177.581,139.065 178.889 C 136.653 188.341,136.532 192.039,138.705 189.867 C 139.023 189.548,139.551 189.395,139.886 189.523 C 140.248 189.662,140.399 189.604,140.260 189.380 C 139.889 188.780,150.236 185.066,155.093 184.056 C 156.162 183.833,157.037 183.502,157.037 183.319 C 157.037 183.136,157.281 183.080,157.578 183.194 C 157.876 183.308,158.622 183.151,159.237 182.844 C 159.851 182.538,160.717 182.382,161.161 182.498 C 161.749 182.652,161.889 182.583,161.678 182.241 C 161.457 181.884,161.663 181.833,162.546 182.027 C 163.183 182.167,163.704 182.132,163.704 181.949 C 163.704 181.628,166.516 180.998,170.063 180.526 C 171.596 180.321,173.282 179.335,173.362 178.597 C 173.480 177.502,173.812 176.710,174.971 174.765 C 175.700 173.541,176.296 172.386,176.296 172.199 C 176.296 172.011,176.630 171.650,177.037 171.396 C 177.444 171.141,177.778 170.749,177.778 170.524 C 177.778 170.299,178.140 169.797,178.582 169.409 C 179.117 168.940,179.293 168.890,179.106 169.259 C 178.952 169.565,179.355 169.231,180.001 168.519 C 182.372 165.902,185.704 162.617,185.844 162.757 C 185.923 162.836,186.313 162.576,186.711 162.178 C 187.109 161.780,187.578 161.543,187.752 161.651 C 187.927 161.759,188.167 161.597,188.284 161.291 C 188.402 160.984,188.653 160.777,188.842 160.830 C 189.031 160.883,189.227 160.759,189.278 160.556 C 189.329 160.352,189.637 159.990,189.963 159.753 C 190.288 159.515,190.445 159.210,190.311 159.076 C 189.925 158.690,187.037 158.450,187.037 158.805 M156.852 159.458 C 155.391 159.964,155.389 159.968,156.667 159.752 C 158.178 159.497,159.722 158.933,158.889 158.941 C 158.583 158.944,157.667 159.176,156.852 159.458 M214.907 166.780 C 213.523 167.199,213.393 167.585,214.444 168.148 C 215.068 168.482,215.185 168.430,215.185 167.817 C 215.185 167.344,215.477 167.047,216.019 166.970 C 216.477 166.904,216.685 166.753,216.481 166.633 C 216.278 166.514,215.569 166.580,214.907 166.780 M224.259 168.146 C 225.481 168.804,226.802 169.616,227.193 169.949 C 227.585 170.283,227.785 170.349,227.637 170.097 C 227.198 169.345,224.268 167.469,223.112 167.199 C 222.440 167.042,222.869 167.397,224.259 168.146 M208.848 171.727 C 208.520 171.815,208.061 172.303,207.829 172.812 C 207.263 174.055,207.297 174.367,207.907 173.533 C 208.181 173.157,208.579 172.957,208.790 173.087 C 209.004 173.220,209.253 172.917,209.351 172.403 C 209.448 171.896,209.508 171.501,209.486 171.524 C 209.463 171.548,209.176 171.639,208.848 171.727 M216.681 173.852 C 216.495 174.340,215.962 175.007,215.497 175.333 C 215.031 175.659,214.831 175.926,215.052 175.926 C 215.628 175.926,217.407 174.069,217.407 173.468 C 217.407 172.684,217.054 172.871,216.681 173.852 M207.422 183.070 C 207.361 184.285,209.662 187.189,211.842 188.647 C 213.399 189.688,213.528 189.321,212.000 188.196 C 210.203 186.873,208.783 185.336,208.022 183.889 C 207.700 183.278,207.430 182.909,207.422 183.070 M161.508 186.515 C 159.995 186.794,158.662 187.168,158.545 187.347 C 158.429 187.526,158.042 187.628,157.685 187.573 C 157.329 187.518,157.037 187.609,157.037 187.776 C 157.037 187.942,156.704 187.992,156.296 187.885 C 155.854 187.769,155.556 187.874,155.556 188.145 C 155.556 188.394,155.316 188.506,155.024 188.394 C 154.732 188.282,154.440 188.327,154.376 188.495 C 154.312 188.663,152.446 189.313,150.231 189.941 C 148.015 190.569,146.117 191.167,146.014 191.270 C 145.762 191.522,144.621 197.049,143.849 201.755 C 143.505 203.845,143.079 205.556,142.902 205.556 C 142.724 205.556,142.683 205.972,142.811 206.481 C 142.963 207.089,142.888 207.407,142.593 207.407 C 142.297 207.407,142.222 207.726,142.374 208.333 C 142.515 208.894,142.448 209.259,142.206 209.259 C 141.986 209.259,141.853 209.551,141.912 209.907 C 141.971 210.264,141.910 210.728,141.778 210.938 C 141.646 211.148,141.441 212.137,141.324 213.135 C 141.206 214.133,140.622 217.378,140.026 220.345 C 139.430 223.313,138.668 227.241,138.334 229.074 C 137.999 230.907,137.404 234.056,137.011 236.070 C 136.045 241.019,136.007 240.815,137.870 240.704 C 138.736 240.652,139.651 240.454,139.903 240.264 C 140.155 240.073,140.780 240.022,141.291 240.151 C 141.815 240.282,142.222 240.224,142.222 240.019 C 142.222 239.817,142.472 239.749,142.778 239.866 C 143.083 239.983,143.333 239.900,143.333 239.681 C 143.333 239.462,143.562 239.370,143.841 239.477 C 144.120 239.585,144.616 239.406,144.941 239.080 C 145.267 238.754,146.414 238.078,147.489 237.577 C 150.711 236.078,151.969 235.260,153.360 233.759 C 154.749 232.261,157.037 228.766,157.037 228.143 C 157.037 227.942,157.214 227.778,157.429 227.778 C 157.645 227.778,157.718 227.611,157.593 227.407 C 157.467 227.204,157.558 227.037,157.796 227.037 C 158.034 227.037,158.128 226.779,158.007 226.462 C 157.886 226.146,157.934 225.979,158.115 226.090 C 158.416 226.276,159.393 222.455,160.335 217.407 C 161.774 209.704,163.803 199.174,164.118 197.778 C 164.325 196.861,164.484 195.727,164.472 195.257 C 164.457 194.705,164.600 194.497,164.876 194.667 C 165.166 194.847,165.236 194.677,165.093 194.132 C 164.978 193.693,165.053 193.333,165.260 193.333 C 165.473 193.333,165.538 192.944,165.411 192.438 C 165.288 191.946,165.343 191.487,165.535 191.420 C 165.726 191.352,165.934 190.130,165.997 188.704 C 166.131 185.653,166.147 185.661,161.508 186.515 M224.074 188.732 C 223.157 189.238,222.824 189.534,223.333 189.388 C 223.843 189.243,224.543 189.119,224.890 189.112 C 225.237 189.106,225.446 189.027,225.356 188.936 C 225.266 188.846,225.377 188.548,225.604 188.275 C 226.151 187.616,226.029 187.652,224.074 188.732 M214.237 189.785 C 215.061 190.455,215.556 190.536,215.556 190.000 C 215.556 189.796,215.403 189.630,215.215 189.630 C 215.028 189.630,214.570 189.533,214.197 189.414 C 213.576 189.217,213.580 189.249,214.237 189.785 M200.556 203.704 C 200.418 204.519,200.142 205.185,199.942 205.185 C 199.743 205.185,199.686 205.519,199.815 205.926 C 199.951 206.356,199.881 206.667,199.648 206.667 C 199.397 206.667,199.338 207.037,199.491 207.648 C 199.678 208.391,199.623 208.558,199.264 208.336 C 198.905 208.115,198.831 208.327,198.960 209.207 C 199.054 209.847,198.993 210.370,198.825 210.370 C 198.656 210.370,198.519 210.754,198.519 211.222 C 198.519 211.691,198.192 213.566,197.793 215.389 C 197.082 218.642,196.946 224.681,197.531 227.037 C 197.906 228.548,198.976 230.741,199.337 230.741 C 199.522 230.741,199.570 230.909,199.443 231.114 C 199.316 231.319,199.473 231.587,199.791 231.709 C 200.110 231.831,200.370 232.145,200.370 232.407 C 200.370 232.669,200.620 232.980,200.926 233.097 C 201.231 233.214,201.481 233.495,201.481 233.721 C 201.481 234.276,204.474 237.037,205.076 237.037 C 205.340 237.037,205.556 237.177,205.556 237.348 C 205.556 237.519,206.217 237.877,207.025 238.144 C 207.833 238.411,208.406 238.771,208.299 238.944 C 208.128 239.222,208.940 239.427,209.722 239.303 C 209.875 239.279,210.000 239.436,210.000 239.651 C 210.000 239.867,210.155 239.948,210.345 239.831 C 210.534 239.713,210.788 239.776,210.908 239.970 C 211.956 241.666,212.991 239.764,213.762 234.728 C 214.004 233.146,214.351 231.852,214.533 231.852 C 214.716 231.852,214.759 231.519,214.630 231.111 C 214.486 230.657,214.563 230.370,214.829 230.370 C 215.084 230.370,215.166 230.113,215.027 229.752 C 214.897 229.412,214.949 229.035,215.144 228.914 C 215.339 228.794,215.605 227.864,215.735 226.848 C 216.075 224.199,216.183 223.588,216.420 222.963 C 216.536 222.657,216.733 221.741,216.859 220.926 C 217.149 219.043,217.540 216.881,218.268 213.148 C 219.816 205.207,219.906 205.556,216.315 205.555 C 212.471 205.554,202.963 203.678,202.963 202.920 C 202.963 202.753,202.713 202.712,202.407 202.829 C 202.102 202.946,201.852 202.858,201.852 202.632 C 201.852 201.492,200.780 202.378,200.556 203.704 M84.907 265.074 L 83.704 265.232 83.704 279.054 L 83.704 292.877 84.645 293.056 C 85.162 293.155,86.454 293.216,87.515 293.192 L 89.444 293.148 89.546 287.315 L 89.648 281.481 95.935 281.481 L 102.222 281.481 102.222 287.222 C 102.222 291.535,102.337 292.978,102.685 293.025 C 103.833 293.178,107.262 293.217,107.625 293.081 C 107.905 292.976,108.017 288.732,107.995 279.058 L 107.963 265.185 105.317 265.185 C 102.079 265.185,102.222 264.902,102.222 271.327 L 102.222 276.296 95.966 276.296 L 89.710 276.296 89.473 275.351 C 89.342 274.831,89.338 272.956,89.463 271.185 C 89.886 265.185,89.367 264.490,84.907 265.074 M115.744 267.130 C 115.478 269.336,115.642 292.434,115.926 292.714 C 116.101 292.887,119.650 293.108,120.648 293.009 C 121.009 292.973,121.111 289.914,121.111 279.074 L 121.111 265.185 118.545 265.185 L 115.979 265.185 115.744 267.130 M129.193 276.204 C 129.157 282.264,129.091 288.306,129.047 289.630 C 128.934 292.972,129.097 293.173,131.914 293.160 L 134.259 293.148 134.444 283.907 C 134.601 276.101,134.702 274.824,135.094 275.687 C 135.350 276.249,135.725 276.606,135.928 276.481 C 136.130 276.355,136.296 276.436,136.296 276.661 C 136.296 277.066,139.329 281.354,140.623 282.778 C 140.993 283.185,141.296 283.644,141.296 283.798 C 141.296 283.951,141.713 284.451,142.222 284.909 C 143.534 286.089,145.495 288.680,145.918 289.795 C 146.116 290.315,146.449 290.741,146.657 290.741 C 146.866 290.741,147.042 290.949,147.049 291.204 C 147.087 292.688,150.027 293.779,152.392 293.185 C 153.288 292.960,154.012 274.942,153.399 268.148 L 153.148 265.370 150.470 265.262 L 147.791 265.153 147.692 274.151 L 147.593 283.148 146.168 281.019 C 145.384 279.847,144.592 278.889,144.408 278.889 C 144.225 278.889,144.074 278.716,144.074 278.504 C 144.074 278.293,143.413 277.432,142.606 276.592 C 141.799 275.751,140.874 274.508,140.552 273.828 C 140.229 273.149,139.806 272.593,139.612 272.593 C 139.418 272.593,139.259 272.370,139.259 272.097 C 139.259 271.825,138.610 270.919,137.815 270.084 C 137.021 269.250,136.452 268.486,136.551 268.387 C 136.649 268.289,136.383 268.022,135.958 267.795 C 135.533 267.567,135.185 267.163,135.185 266.896 C 135.185 265.807,133.861 265.185,131.545 265.185 L 129.259 265.185 129.193 276.204 M161.028 278.611 C 160.972 285.995,161.014 292.333,161.122 292.694 C 161.590 294.257,178.163 293.001,179.893 291.271 C 180.185 290.979,180.626 290.741,180.874 290.741 C 181.768 290.741,185.556 285.537,185.556 284.308 C 185.556 283.976,185.717 283.704,185.914 283.704 C 186.112 283.704,186.177 283.454,186.060 283.148 C 185.942 282.842,186.049 282.593,186.298 282.593 C 186.613 282.593,186.676 282.201,186.506 281.296 C 186.354 280.486,186.408 280.000,186.650 280.000 C 186.863 280.000,187.037 279.407,187.037 278.682 C 187.037 277.786,186.901 277.448,186.613 277.626 C 186.312 277.812,186.263 277.591,186.443 276.872 C 186.595 276.269,186.523 275.643,186.267 275.335 C 186.029 275.049,185.981 274.812,186.158 274.809 C 186.336 274.806,186.315 274.681,186.111 274.531 C 185.907 274.382,185.167 273.108,184.467 271.702 C 183.670 270.103,182.803 268.923,182.154 268.554 C 181.583 268.229,181.115 267.838,181.113 267.685 C 181.112 267.532,180.861 267.407,180.556 267.407 C 180.250 267.407,180.000 267.231,180.000 267.015 C 180.000 266.799,179.833 266.726,179.630 266.852 C 179.426 266.978,179.259 266.894,179.259 266.667 C 179.259 266.439,179.093 266.356,178.889 266.481 C 178.685 266.607,178.519 266.554,178.519 266.362 C 178.519 265.595,174.922 265.185,168.178 265.185 L 161.129 265.185 161.028 278.611 M176.296 271.333 C 177.009 271.688,177.676 272.088,177.778 272.220 C 177.880 272.353,178.233 272.561,178.564 272.682 C 180.280 273.314,181.482 278.597,180.653 281.863 C 180.067 284.173,176.682 287.407,174.851 287.407 C 174.458 287.407,174.080 287.532,174.012 287.685 C 173.944 287.838,172.264 287.910,170.278 287.845 L 166.667 287.727 166.667 278.994 L 166.667 270.260 170.833 270.473 C 173.699 270.620,175.405 270.888,176.296 271.333 M244.167 288.403 C 244.523 288.497,245.106 288.497,245.463 288.403 C 245.819 288.310,245.528 288.234,244.815 288.234 C 244.102 288.234,243.810 288.310,244.167 288.403 " stroke="none" fill="#111532" fill-rule="evenodd"></path><path id="path2" d="M235.461 107.832 C 235.695 108.065,235.812 108.774,235.722 109.406 L 235.558 110.556 235.941 109.339 C 236.193 108.539,236.478 108.214,236.773 108.391 C 237.052 108.559,237.030 108.423,236.714 108.034 C 236.434 107.689,235.943 107.407,235.621 107.407 C 235.182 107.407,235.142 107.513,235.461 107.832 M225.741 110.598 C 223.621 111.685,222.862 112.245,223.137 112.520 C 223.242 112.625,223.637 112.432,224.015 112.091 C 224.392 111.749,225.518 111.065,226.517 110.569 C 227.516 110.074,228.167 109.664,227.963 109.659 C 227.759 109.653,226.759 110.076,225.741 110.598 M217.498 118.056 C 216.521 119.477,215.674 121.398,215.133 123.419 C 214.880 124.366,214.573 125.079,214.451 125.004 C 214.329 124.929,214.312 125.480,214.413 126.230 C 214.562 127.329,214.624 127.414,214.732 126.667 C 215.005 124.799,216.278 121.131,217.356 119.111 C 218.554 116.866,218.612 116.435,217.498 118.056 M212.419 136.034 C 212.260 136.400,212.235 136.803,212.362 136.930 C 212.738 137.306,213.041 136.777,212.868 136.048 C 212.714 135.400,212.694 135.400,212.419 136.034 M212.130 137.621 C 211.977 137.775,211.852 138.240,211.852 138.654 C 211.852 139.199,211.964 139.296,212.257 139.002 C 212.480 138.779,212.605 138.315,212.535 137.969 C 212.465 137.624,212.282 137.467,212.130 137.621 M209.484 150.528 C 209.157 151.833,209.233 151.902,210.574 151.501 C 211.178 151.321,211.372 151.161,211.007 151.143 C 210.644 151.125,210.211 150.746,210.046 150.299 C 209.757 149.518,209.736 149.527,209.484 150.528 M226.667 150.957 L 225.741 151.471 226.944 151.476 C 227.770 151.480,228.148 151.307,228.148 150.926 C 228.148 150.267,227.901 150.272,226.667 150.957 M223.056 150.996 C 223.412 151.089,223.995 151.089,224.352 150.996 C 224.708 150.903,224.417 150.827,223.704 150.827 C 222.991 150.827,222.699 150.903,223.056 150.996 M211.451 156.438 C 211.366 156.516,210.515 156.672,209.560 156.786 C 208.605 156.899,206.605 157.366,205.116 157.824 C 203.626 158.282,202.324 158.681,202.222 158.712 C 201.267 158.999,200.788 159.409,200.999 159.761 C 201.139 159.994,200.940 159.935,200.557 159.630 C 199.934 159.132,199.884 159.135,200.081 159.662 C 200.244 160.099,199.761 160.514,198.206 161.274 C 193.159 163.740,185.685 169.348,184.503 171.557 C 184.240 172.049,183.634 172.691,183.156 172.985 C 181.995 173.698,178.889 177.743,178.889 178.541 C 178.889 178.890,179.722 180.063,180.741 181.148 C 182.488 183.009,183.111 184.444,182.171 184.444 C 181.940 184.444,182.723 185.350,183.913 186.457 C 185.102 187.564,186.190 188.399,186.329 188.313 C 186.468 188.227,186.669 188.488,186.775 188.893 C 186.881 189.298,187.170 189.630,187.418 189.630 C 187.752 189.630,187.739 189.462,187.367 188.981 C 186.943 188.434,186.991 188.441,187.677 189.026 C 188.124 189.406,188.476 189.823,188.460 189.952 C 188.371 190.665,188.573 191.111,188.985 191.111 C 189.242 191.111,189.867 191.490,190.374 191.952 C 190.881 192.415,192.546 193.445,194.074 194.241 C 195.602 195.037,197.664 196.166,198.656 196.750 C 199.648 197.334,200.550 197.722,200.659 197.613 C 200.768 197.503,201.040 197.551,201.262 197.718 C 201.826 198.143,205.880 199.551,207.222 199.787 C 207.833 199.895,208.750 200.067,209.259 200.169 C 211.945 200.709,212.557 200.802,214.259 200.930 C 218.276 201.231,219.917 201.237,222.407 200.959 C 223.833 200.800,225.051 200.621,225.114 200.561 C 225.176 200.501,223.176 200.444,220.669 200.435 C 213.138 200.407,201.481 198.118,201.481 196.666 C 201.481 196.043,209.835 194.452,213.130 194.447 C 215.995 194.442,212.019 192.932,208.832 192.814 C 208.291 192.794,207.913 192.673,207.992 192.545 C 208.071 192.417,207.641 192.213,207.036 192.092 C 206.430 191.971,204.672 191.281,203.129 190.558 C 201.586 189.836,200.179 189.334,200.002 189.443 C 199.825 189.552,199.560 189.447,199.413 189.208 C 199.234 188.919,199.306 188.874,199.630 189.074 C 199.960 189.278,200.025 189.230,199.835 188.921 C 199.681 188.672,199.330 188.554,199.055 188.660 C 198.734 188.783,198.630 188.660,198.762 188.314 C 198.885 187.993,198.746 187.778,198.415 187.778 C 198.111 187.778,196.825 186.779,195.558 185.558 C 194.291 184.337,193.101 183.433,192.914 183.549 C 192.727 183.664,192.620 183.538,192.676 183.268 C 192.732 182.997,192.530 182.833,192.222 182.901 C 191.917 182.969,191.791 182.900,191.943 182.749 C 192.094 182.597,191.829 181.958,191.352 181.329 C 189.669 179.106,189.531 178.615,190.248 177.400 C 190.607 176.793,191.031 176.296,191.191 176.296 C 191.351 176.296,191.481 176.114,191.481 175.892 C 191.481 175.485,192.979 173.401,193.089 173.655 C 193.122 173.730,194.050 172.917,195.152 171.849 C 199.638 167.503,211.975 161.728,213.505 163.258 C 213.614 163.367,213.704 163.262,213.704 163.025 C 213.704 162.787,213.829 162.612,213.981 162.636 C 214.134 162.661,214.634 162.661,215.093 162.636 C 216.123 162.582,216.209 161.852,215.185 161.852 C 214.778 161.852,214.444 162.028,214.444 162.244 C 214.444 162.460,214.274 162.531,214.065 162.402 C 213.323 161.943,204.941 164.278,203.907 165.231 C 203.714 165.409,203.323 165.556,203.039 165.556 C 202.754 165.556,202.038 165.900,201.446 166.322 C 200.854 166.743,200.370 166.967,200.370 166.820 C 200.370 166.672,200.068 166.826,199.698 167.160 C 199.328 167.495,198.453 167.963,197.754 168.201 C 197.054 168.439,195.610 169.525,194.545 170.613 C 193.480 171.702,192.429 172.593,192.209 172.593 C 191.988 172.593,191.911 172.759,192.037 172.963 C 192.163 173.167,192.006 173.333,191.689 173.333 C 191.371 173.333,191.111 173.495,191.111 173.692 C 191.111 173.889,190.847 173.950,190.525 173.826 C 190.052 173.644,190.034 173.540,190.432 173.287 C 190.704 173.115,190.781 172.972,190.603 172.969 C 190.425 172.966,190.487 172.713,190.741 172.407 C 191.059 172.024,191.073 171.852,190.786 171.852 C 190.557 171.852,190.370 171.581,190.370 171.251 C 190.370 170.734,190.285 170.721,189.754 171.158 C 187.757 172.806,190.560 169.369,193.661 166.368 C 197.318 162.829,200.050 160.782,202.496 159.746 C 204.521 158.890,211.062 157.037,212.063 157.037 C 212.534 157.037,213.022 156.870,213.148 156.667 C 213.360 156.324,211.803 156.115,211.451 156.438 M230.185 157.311 C 230.758 157.904,232.222 158.257,232.222 157.803 C 232.222 157.585,231.986 157.407,231.697 157.407 C 231.408 157.407,230.866 157.300,230.493 157.168 C 230.030 157.004,229.933 157.050,230.185 157.311 M198.605 160.166 C 197.253 160.913,197.187 161.150,198.453 160.708 C 199.100 160.482,199.630 160.148,199.630 159.964 C 199.630 159.780,199.588 159.646,199.537 159.666 C 199.486 159.686,199.066 159.911,198.605 160.166 M231.481 198.795 C 230.972 198.867,230.306 199.029,230.000 199.156 C 229.694 199.282,229.012 199.437,228.483 199.499 C 227.954 199.561,227.121 199.783,226.631 199.992 C 225.458 200.494,228.801 200.135,231.346 199.485 C 233.127 199.031,233.221 198.552,231.481 198.795 M242.963 264.905 C 242.963 265.059,242.838 265.157,242.685 265.122 C 241.614 264.877,238.566 265.835,237.012 266.904 C 236.007 267.595,235.185 268.059,235.185 267.934 C 235.185 267.810,234.576 268.432,233.832 269.317 C 230.215 273.619,229.120 279.984,231.151 284.907 C 231.610 286.020,232.384 286.325,232.090 285.278 C 231.366 282.696,230.661 278.360,230.950 278.264 C 231.140 278.200,231.280 277.339,231.259 276.350 C 231.203 273.641,233.192 270.376,236.194 268.247 C 238.367 266.706,242.141 265.578,245.167 265.564 C 246.381 265.559,247.045 265.422,246.833 265.221 C 246.394 264.803,242.963 264.523,242.963 264.905 M197.778 265.215 C 197.778 265.402,197.653 265.526,197.500 265.491 C 196.518 265.262,192.518 268.433,192.350 269.573 C 192.307 269.869,192.129 270.211,191.955 270.333 C 190.883 271.086,192.085 276.325,193.736 278.098 C 194.974 279.426,200.391 281.585,200.988 280.987 C 201.075 280.901,200.682 280.713,200.116 280.571 C 198.569 280.183,195.473 278.691,194.595 277.911 C 191.016 274.730,192.886 267.956,197.659 266.814 C 198.234 266.677,198.929 266.387,199.203 266.169 C 199.478 265.952,201.103 265.773,202.815 265.771 C 205.891 265.769,206.863 265.451,204.927 265.081 C 203.218 264.754,197.778 264.856,197.778 265.215 M247.407 265.196 C 247.407 265.596,247.710 265.763,248.981 266.067 C 249.657 266.228,250.000 266.162,250.000 265.871 C 250.000 265.630,249.890 265.542,249.756 265.676 C 249.622 265.810,249.272 265.720,248.978 265.476 C 248.322 264.931,247.407 264.768,247.407 265.196 M292.598 265.114 C 292.595 265.381,292.437 265.503,292.247 265.385 C 292.045 265.261,291.965 265.817,292.055 266.722 C 292.140 267.575,292.059 268.454,291.876 268.675 C 291.254 269.424,292.308 270.284,293.615 270.092 C 295.026 269.885,295.232 269.259,293.889 269.259 C 292.872 269.259,292.421 266.702,293.426 266.637 C 295.191 266.522,296.745 266.441,298.448 266.374 C 301.671 266.247,300.289 265.659,296.592 265.584 C 294.409 265.540,293.065 265.354,292.885 265.072 C 292.675 264.741,292.603 264.752,292.598 265.114 M218.656 265.633 C 218.565 265.779,218.513 268.515,218.538 271.714 C 218.605 279.971,219.315 278.125,219.412 269.444 L 219.444 266.481 221.019 266.368 L 222.593 266.254 222.593 269.855 C 222.593 271.836,222.704 273.345,222.841 273.208 C 222.978 273.072,223.053 272.044,223.007 270.924 C 222.962 269.805,223.058 268.889,223.222 268.889 C 223.608 268.888,223.825 265.561,223.441 265.539 C 220.646 265.384,218.787 265.421,218.656 265.633 M266.111 265.738 C 265.319 266.081,265.213 266.212,265.741 266.194 C 266.148 266.180,266.842 266.288,267.284 266.433 C 268.286 266.762,268.774 266.089,267.880 265.610 C 267.438 265.374,266.857 265.416,266.111 265.738 M281.583 267.719 C 281.814 270.586,282.593 271.743,282.593 269.219 C 282.593 267.068,283.220 266.195,284.648 266.357 L 285.741 266.481 285.763 279.167 L 285.786 291.852 284.404 291.852 C 283.196 291.852,282.994 291.724,282.804 290.833 C 282.372 288.809,282.290 286.409,282.571 284.061 C 282.879 281.492,282.748 280.627,282.084 280.848 C 281.800 280.943,281.648 282.919,281.610 287.012 L 281.553 293.036 282.787 292.892 C 283.466 292.812,283.934 292.890,283.826 293.064 C 283.656 293.339,286.267 293.049,286.610 292.754 C 286.723 292.657,286.660 272.791,286.530 267.445 L 286.481 265.447 283.938 265.408 L 281.395 265.370 281.583 267.719 M263.359 265.833 C 263.434 266.633,264.022 267.582,264.048 266.944 C 264.062 266.588,264.241 266.296,264.444 266.296 C 264.648 266.296,264.815 266.130,264.815 265.926 C 264.815 265.722,264.481 265.556,264.074 265.556 C 263.667 265.556,263.345 265.681,263.359 265.833 M307.037 265.926 C 307.037 266.145,308.395 266.296,310.370 266.296 C 312.346 266.296,313.704 266.145,313.704 265.926 C 313.704 265.706,312.346 265.556,310.370 265.556 C 308.395 265.556,307.037 265.706,307.037 265.926 M208.611 267.101 C 209.782 267.737,210.741 268.482,210.741 268.758 C 210.741 269.034,210.907 269.259,211.111 269.259 C 211.315 269.259,211.481 269.048,211.481 268.790 C 211.481 268.273,207.771 265.920,206.979 265.936 C 206.705 265.941,207.440 266.466,208.611 267.101 M250.741 266.258 C 250.741 266.433,251.237 266.782,251.843 267.033 C 253.099 267.553,254.445 268.633,254.443 269.118 C 254.438 270.004,252.640 271.659,252.176 271.204 C 251.916 270.949,251.378 270.741,250.979 270.741 C 250.355 270.741,250.403 270.868,251.331 271.666 C 252.645 272.796,253.207 272.834,253.530 271.815 C 253.666 271.388,254.094 270.721,254.481 270.334 C 255.762 269.053,255.452 268.585,252.061 266.680 C 251.335 266.272,250.741 266.082,250.741 266.258 M198.597 269.059 C 197.327 269.760,195.926 271.173,195.926 271.753 C 195.926 272.035,195.773 272.172,195.587 272.056 C 195.047 271.723,196.051 274.208,196.667 274.731 C 197.599 275.522,199.895 276.648,200.119 276.424 C 200.235 276.308,199.631 275.845,198.776 275.394 C 195.879 273.867,196.472 270.417,199.739 269.791 C 201.361 269.480,201.626 269.483,203.611 269.833 C 205.728 270.207,204.898 269.378,202.716 268.940 C 200.200 268.435,199.702 268.449,198.597 269.059 M263.835 272.037 C 263.834 273.870,263.897 274.667,263.974 273.807 C 264.052 272.948,264.053 271.448,263.976 270.474 C 263.900 269.500,263.836 270.204,263.835 272.037 M240.374 269.811 C 240.122 270.114,239.798 270.289,239.654 270.200 C 239.342 270.008,238.016 271.473,238.271 271.728 C 238.498 271.955,240.000 271.020,240.000 270.652 C 240.000 270.497,240.417 270.370,240.926 270.370 C 241.502 270.370,241.852 270.160,241.852 269.815 C 241.852 269.100,240.965 269.098,240.374 269.811 M207.770 271.389 C 208.176 272.227,209.630 272.567,209.630 271.825 C 209.630 271.606,209.338 271.487,208.981 271.560 C 208.625 271.634,208.116 271.438,207.850 271.125 C 207.443 270.645,207.430 270.687,207.770 271.389 M236.882 272.463 C 236.568 273.281,236.831 273.473,237.373 272.820 C 237.636 272.503,237.673 272.201,237.464 272.072 C 237.272 271.953,237.010 272.129,236.882 272.463 M301.123 282.593 L 301.091 292.963 303.642 292.963 L 306.193 292.963 306.197 286.204 C 306.199 281.788,306.093 279.894,305.890 280.741 C 305.719 281.454,305.606 284.157,305.639 286.749 C 305.672 289.341,305.578 291.583,305.429 291.731 C 305.102 292.059,302.512 291.920,302.153 291.556 C 301.658 291.054,301.820 283.273,302.445 277.500 C 302.621 275.869,302.571 275.185,302.274 275.185 C 302.028 275.185,301.852 274.565,301.852 273.704 C 301.852 272.889,301.695 272.222,301.503 272.222 C 301.294 272.222,301.142 276.376,301.123 282.593 M305.556 274.074 C 305.556 274.889,305.722 275.556,305.926 275.556 C 306.130 275.556,306.296 274.889,306.296 274.074 C 306.296 273.259,306.130 272.593,305.926 272.593 C 305.722 272.593,305.556 273.259,305.556 274.074 M235.703 274.647 C 235.365 275.995,235.698 276.100,236.188 274.801 C 236.416 274.197,236.453 273.704,236.271 273.704 C 236.089 273.704,235.834 274.128,235.703 274.647 M281.667 275.926 C 281.402 276.354,281.743 277.037,282.221 277.037 C 282.400 277.037,282.521 276.704,282.491 276.296 C 282.431 275.501,282.038 275.324,281.667 275.926 M305.561 276.944 C 305.566 277.738,305.646 277.840,305.926 277.407 C 306.394 276.683,306.394 275.926,305.926 275.926 C 305.722 275.926,305.558 276.384,305.561 276.944 M269.078 277.043 C 269.202 277.243,269.821 277.407,270.454 277.407 C 271.853 277.407,271.712 277.223,270.074 276.911 C 269.311 276.765,268.937 276.815,269.078 277.043 M203.871 277.379 C 203.987 277.567,204.581 277.830,205.189 277.964 C 205.798 278.098,206.296 278.332,206.296 278.485 C 206.296 278.638,206.755 278.993,207.315 279.272 C 208.619 279.924,209.994 281.126,210.021 281.639 C 210.033 281.858,210.422 282.613,210.886 283.318 C 211.710 284.568,211.632 287.522,210.760 288.148 C 210.236 288.524,210.024 289.630,210.477 289.630 C 213.167 289.630,212.303 281.654,209.363 279.356 C 207.604 277.981,203.282 276.425,203.871 277.379 M254.815 277.526 C 253.503 278.089,253.497 278.101,254.269 278.665 C 254.886 279.116,254.971 279.736,255.010 284.083 L 255.054 288.991 253.823 289.717 C 253.146 290.117,252.593 290.594,252.593 290.777 C 252.593 290.961,252.363 291.111,252.082 291.111 C 251.802 291.111,251.358 291.369,251.097 291.684 C 250.836 291.998,250.425 292.180,250.185 292.088 C 249.651 291.883,248.634 292.461,248.957 292.784 C 249.085 292.912,250.163 292.560,251.354 292.001 C 252.544 291.442,253.716 290.947,253.958 290.899 C 255.752 290.548,255.995 289.615,255.944 283.290 C 255.889 276.402,256.009 277.014,254.815 277.526 M279.050 277.368 C 279.162 277.550,279.933 277.764,280.762 277.843 C 282.060 277.967,282.179 277.921,281.619 277.512 C 280.887 276.977,278.734 276.856,279.050 277.368 M244.490 279.663 L 244.441 281.824 246.943 281.601 C 250.154 281.315,250.372 281.111,247.469 281.111 L 245.185 281.111 245.185 279.889 C 245.185 279.217,245.363 278.489,245.580 278.272 C 245.860 277.992,245.765 277.822,245.257 277.689 C 244.611 277.520,244.534 277.718,244.490 279.663 M246.667 278.205 C 246.667 278.378,247.583 278.519,248.704 278.519 C 249.849 278.519,250.741 278.352,250.741 278.139 C 250.741 277.917,249.892 277.787,248.704 277.826 C 247.583 277.862,246.667 278.033,246.667 278.205 M234.444 280.273 C 234.444 280.829,235.531 282.088,235.544 281.548 C 235.550 281.278,235.306 280.808,235.000 280.503 C 234.694 280.197,234.444 280.094,234.444 280.273 M280.370 280.370 L 279.444 280.667 280.441 280.704 C 280.989 280.724,281.541 280.574,281.667 280.370 C 281.927 279.949,281.685 279.949,280.370 280.370 M270.093 280.626 C 270.449 280.719,271.032 280.719,271.389 280.626 C 271.745 280.533,271.454 280.456,270.741 280.456 C 270.028 280.456,269.736 280.533,270.093 280.626 M201.852 281.122 C 201.852 281.276,202.253 281.502,202.743 281.625 C 203.234 281.748,203.900 281.951,204.225 282.075 C 204.549 282.200,204.815 282.151,204.815 281.968 C 204.815 281.785,204.148 281.457,203.333 281.239 C 202.519 281.022,201.852 280.969,201.852 281.122 M205.185 282.127 C 205.185 282.692,206.695 284.100,207.059 283.875 C 207.520 283.590,207.499 283.951,207.000 284.884 C 206.689 285.466,206.698 285.580,207.040 285.369 C 207.808 284.894,207.055 286.755,206.065 287.778 C 204.730 289.157,199.081 289.176,197.622 287.806 C 197.097 287.312,196.667 287.026,196.667 287.171 C 196.667 287.316,196.045 287.011,195.284 286.495 C 193.576 285.334,191.852 285.727,191.852 287.278 C 191.852 287.406,191.581 287.709,191.251 287.950 C 189.354 289.338,196.749 293.815,200.370 293.471 C 200.676 293.442,201.301 293.400,201.759 293.376 C 202.218 293.353,202.593 293.149,202.593 292.923 C 202.593 292.698,202.343 292.609,202.039 292.726 C 201.109 293.083,197.313 292.218,195.697 291.281 C 194.858 290.794,194.101 290.466,194.016 290.552 C 193.930 290.638,193.366 290.289,192.763 289.776 C 192.037 289.159,191.824 288.778,192.132 288.650 C 192.388 288.543,192.518 288.327,192.422 288.171 C 192.325 288.015,192.474 287.575,192.752 287.194 C 193.317 286.423,193.817 286.583,196.795 288.492 C 198.324 289.472,203.372 289.850,205.000 289.106 C 205.407 288.920,205.824 288.749,205.926 288.726 C 207.483 288.376,208.574 284.090,207.336 283.185 C 207.029 282.961,206.795 282.611,206.815 282.407 C 206.835 282.204,206.477 281.984,206.019 281.919 C 205.560 281.854,205.185 281.947,205.185 282.127 M251.268 283.539 C 251.132 284.264,251.116 285.445,251.233 286.165 C 251.406 287.228,251.341 287.433,250.889 287.259 C 250.573 287.138,250.430 287.204,250.558 287.412 C 250.755 287.730,250.226 287.941,249.872 287.685 C 249.801 287.634,249.482 287.809,249.163 288.074 C 247.581 289.388,239.390 288.694,240.240 287.319 C 240.379 287.094,240.311 287.030,240.084 287.170 C 239.863 287.307,239.052 286.840,238.281 286.134 C 237.510 285.428,236.790 284.939,236.681 285.048 C 236.572 285.157,236.804 285.480,237.196 285.767 C 237.588 286.054,237.796 286.402,237.657 286.540 C 236.913 287.284,243.466 289.728,245.556 289.486 C 250.545 288.907,252.268 287.591,252.133 284.459 C 252.026 281.957,251.641 281.548,251.268 283.539 M218.814 284.815 C 218.691 285.731,218.583 287.940,218.575 289.722 L 218.559 292.963 221.131 292.963 C 223.124 292.963,223.704 292.843,223.704 292.429 C 223.704 291.711,222.945 291.281,222.617 291.812 C 222.438 292.103,221.892 292.142,220.899 291.936 L 219.444 291.635 219.346 288.317 C 219.208 283.656,219.081 282.822,218.814 284.815 M263.828 287.037 C 263.828 288.565,263.894 289.190,263.974 288.426 C 264.053 287.662,264.053 286.412,263.974 285.648 C 263.894 284.884,263.828 285.509,263.828 287.037 M193.333 287.901 C 193.333 288.241,193.510 288.519,193.726 288.519 C 193.941 288.519,193.999 288.711,193.854 288.946 C 193.686 289.217,193.752 289.273,194.035 289.098 C 194.380 288.885,194.374 288.684,194.012 288.208 C 193.754 287.869,193.496 287.523,193.438 287.438 C 193.380 287.353,193.333 287.562,193.333 287.901 M233.269 288.265 C 233.712 288.736,234.074 289.319,234.074 289.561 C 234.074 289.802,234.312 290.000,234.603 290.000 C 234.894 290.000,235.439 290.375,235.815 290.833 C 236.192 291.292,236.744 291.722,237.043 291.789 C 237.341 291.856,237.670 292.023,237.774 292.159 C 237.878 292.296,238.213 292.440,238.519 292.480 C 238.824 292.520,239.741 292.725,240.556 292.934 C 242.459 293.424,243.812 293.437,243.519 292.963 C 243.393 292.759,242.721 292.593,242.026 292.593 C 240.437 292.593,235.223 290.195,235.080 289.399 C 235.008 288.998,233.149 287.407,232.752 287.407 C 232.593 287.407,232.826 287.793,233.269 288.265 M263.611 290.864 C 262.940 292.503,263.238 292.987,264.768 292.742 C 265.597 292.610,266.301 292.672,266.435 292.888 C 266.807 293.489,268.148 292.943,268.148 292.191 C 268.148 291.808,267.943 291.572,267.685 291.656 C 265.523 292.362,264.119 292.184,264.005 291.190 C 263.908 290.349,263.843 290.296,263.611 290.864 M207.809 291.451 C 207.418 291.841,206.975 292.049,206.823 291.914 C 206.672 291.778,206.668 291.875,206.815 292.131 C 207.002 292.455,207.283 292.487,207.752 292.236 C 208.120 292.039,208.491 291.948,208.577 292.034 C 208.663 292.120,208.758 291.864,208.788 291.466 C 208.856 290.561,208.701 290.558,207.809 291.451 M244.444 292.963 C 243.981 293.262,244.012 293.330,244.630 293.369 C 245.994 293.455,247.219 293.273,247.574 292.931 C 248.053 292.470,245.162 292.500,244.444 292.963 " stroke="none" fill="#537499" fill-rule="evenodd"></path><path id="path3" d="M176.468 114.096 C 176.345 114.294,176.091 114.361,175.903 114.245 C 175.715 114.129,175.268 114.205,174.910 114.413 C 174.338 114.746,174.371 114.797,175.185 114.834 C 176.048 114.872,176.026 114.913,174.867 115.418 C 174.183 115.717,173.433 115.883,173.201 115.787 C 172.968 115.692,173.069 115.601,173.426 115.585 C 173.782 115.569,174.074 115.371,174.074 115.146 C 174.074 114.920,173.866 114.811,173.611 114.902 C 173.356 114.994,172.356 115.298,171.389 115.578 C 170.418 115.859,169.630 116.310,169.630 116.584 C 169.630 116.857,169.472 116.983,169.280 116.864 C 169.087 116.745,168.379 116.904,167.705 117.216 L 166.481 117.784 167.874 117.618 C 169.084 117.474,169.197 117.522,168.735 117.985 C 168.443 118.277,167.899 118.420,167.528 118.302 C 166.914 118.107,166.918 118.141,167.572 118.674 C 168.239 119.218,168.361 119.194,169.252 118.341 C 170.302 117.334,172.593 116.663,172.593 117.361 C 172.593 117.590,172.767 117.778,172.979 117.778 C 173.192 117.778,173.317 117.539,173.257 117.247 C 173.197 116.954,173.315 116.698,173.519 116.676 C 173.722 116.655,173.943 116.986,174.010 117.413 C 174.160 118.377,175.908 119.146,176.345 118.440 C 176.531 118.139,176.416 117.885,176.032 117.750 C 175.483 117.557,175.487 117.513,176.074 117.288 C 176.533 117.111,176.689 116.717,176.607 115.936 C 176.543 115.329,176.656 114.829,176.857 114.824 C 177.058 114.819,177.222 114.968,177.222 115.154 C 177.222 115.341,177.347 115.619,177.500 115.772 C 177.653 115.924,177.778 115.623,177.778 115.101 C 177.778 114.136,176.872 113.442,176.468 114.096 M168.148 120.913 C 168.148 122.251,169.309 122.863,169.755 121.759 C 169.903 121.391,169.948 121.392,169.971 121.763 C 169.987 122.020,169.678 122.505,169.285 122.841 C 168.584 123.442,168.587 123.466,169.454 124.148 C 169.962 124.547,170.248 125.072,170.129 125.384 C 169.896 125.990,170.568 126.134,170.926 125.556 C 171.556 124.537,172.592 125.190,172.542 126.574 C 172.511 127.445,172.432 127.650,172.330 127.124 C 172.121 126.033,171.481 126.432,171.481 127.654 C 171.481 128.341,171.633 128.540,172.037 128.385 C 172.343 128.267,172.593 128.361,172.593 128.592 C 172.593 128.823,172.709 128.896,172.852 128.753 C 172.994 128.611,173.065 127.750,173.009 126.840 C 172.935 125.635,173.045 125.185,173.415 125.185 C 174.135 125.185,174.098 130.021,173.374 130.589 C 172.941 130.928,172.953 131.028,173.455 131.221 C 174.238 131.521,174.339 131.309,174.805 128.397 C 175.197 125.939,175.013 123.908,174.431 124.268 C 174.263 124.372,174.021 124.287,173.893 124.080 C 173.667 123.715,174.146 123.553,175.093 123.676 C 175.713 123.757,175.676 123.506,174.961 122.792 C 174.416 122.247,174.317 122.255,173.758 122.893 C 173.165 123.569,173.128 123.569,172.435 122.905 C 171.732 122.232,171.732 122.222,172.466 122.222 C 174.435 122.222,173.026 120.669,170.966 120.568 C 170.333 120.537,169.440 120.308,168.981 120.058 C 168.189 119.626,168.148 119.667,168.148 120.913 M158.414 131.237 C 158.041 132.146,157.867 133.135,158.014 133.519 C 158.208 134.023,158.149 134.118,157.782 133.892 C 157.414 133.664,157.343 133.787,157.499 134.386 C 157.614 134.825,157.557 135.278,157.373 135.392 C 157.188 135.506,157.038 135.964,157.039 136.411 C 157.042 137.294,159.079 138.739,159.458 138.126 C 159.576 137.935,159.431 137.778,159.136 137.778 C 158.714 137.778,158.148 137.060,158.148 136.526 C 158.148 136.481,158.731 136.513,159.444 136.596 C 160.627 136.734,160.741 136.665,160.741 135.803 C 160.741 134.656,160.158 134.223,159.428 134.828 C 158.986 135.196,158.889 135.139,158.889 134.512 C 158.889 134.091,159.033 133.658,159.210 133.549 C 159.386 133.440,159.454 132.950,159.360 132.460 C 159.266 131.969,159.356 131.465,159.560 131.339 C 159.942 131.103,159.726 129.629,159.309 129.631 C 159.180 129.632,158.777 130.355,158.414 131.237 M160.006 131.759 C 160.022 132.571,160.730 133.110,160.735 132.315 C 160.738 131.856,160.574 131.481,160.370 131.481 C 160.167 131.481,160.003 131.606,160.006 131.759 M171.233 141.289 C 170.995 141.546,170.714 142.304,170.609 142.972 C 170.503 143.640,170.263 144.286,170.075 144.408 C 169.498 144.781,169.318 146.991,169.882 146.775 C 170.252 146.633,170.232 146.908,169.793 147.959 C 169.373 148.964,169.316 149.590,169.581 150.312 C 169.914 151.221,169.947 151.169,170.014 149.630 C 170.053 148.713,170.162 148.254,170.255 148.611 C 170.402 149.171,170.495 149.187,170.953 148.730 C 171.549 148.133,171.682 146.869,171.111 147.222 C 170.907 147.348,170.741 147.275,170.741 147.059 C 170.741 146.843,170.900 146.667,171.094 146.667 C 171.580 146.667,171.924 144.609,171.783 142.539 C 171.693 141.204,171.570 140.926,171.233 141.289 M169.630 142.593 C 169.630 142.796,169.380 142.963,169.074 142.963 C 168.769 142.963,168.519 143.213,168.519 143.519 C 168.519 143.827,168.848 144.074,169.259 144.074 C 169.802 144.074,170.000 143.827,170.000 143.148 C 170.000 142.639,169.917 142.222,169.815 142.222 C 169.713 142.222,169.630 142.389,169.630 142.593 M168.148 145.556 C 168.148 145.759,168.398 145.926,168.704 145.926 C 169.009 145.926,169.259 145.759,169.259 145.556 C 169.259 145.352,169.009 145.185,168.704 145.185 C 168.398 145.185,168.148 145.352,168.148 145.556 M155.185 148.767 C 155.185 149.108,154.946 149.650,154.654 149.973 C 153.148 151.637,153.680 155.719,155.291 154.857 C 156.527 154.196,157.892 154.468,158.329 155.463 C 158.689 156.284,160.000 156.647,160.000 155.926 C 160.000 155.722,159.750 155.556,159.444 155.556 C 159.139 155.556,158.889 155.306,158.889 155.000 C 158.889 154.694,158.660 154.444,158.380 154.444 C 158.099 154.444,157.609 153.905,157.290 153.247 C 156.813 152.262,156.666 152.163,156.464 152.691 C 156.126 153.570,155.556 153.501,155.556 152.581 C 155.556 152.142,155.903 151.694,156.389 151.507 C 157.129 151.221,157.150 151.156,156.574 150.923 C 156.218 150.779,155.928 150.388,155.932 150.053 C 155.937 149.525,155.985 149.518,156.296 150.000 C 156.615 150.494,156.655 150.494,156.649 150.000 C 156.643 149.403,155.811 148.148,155.422 148.148 C 155.292 148.148,155.185 148.427,155.185 148.767 M156.296 155.741 C 155.911 156.204,155.963 156.296,156.610 156.296 C 157.146 156.296,157.319 156.125,157.171 155.741 C 157.054 155.435,156.913 155.185,156.858 155.185 C 156.802 155.185,156.550 155.435,156.296 155.741 M159.801 156.688 C 159.666 156.907,159.105 156.981,158.530 156.854 C 157.853 156.706,157.438 156.793,157.316 157.111 C 157.101 157.673,159.122 157.777,159.968 157.247 C 160.255 157.066,161.005 156.796,161.634 156.645 L 162.778 156.372 161.411 156.334 C 160.659 156.313,159.935 156.473,159.801 156.688 M196.973 161.274 C 193.630 162.714,189.316 165.497,187.997 167.064 C 187.485 167.673,186.974 168.164,186.862 168.154 C 186.235 168.099,184.805 169.439,184.986 169.911 C 185.127 170.279,185.017 170.385,184.646 170.243 C 184.344 170.127,183.983 170.217,183.844 170.444 C 183.690 170.693,183.758 170.751,184.017 170.591 C 184.859 170.070,184.423 170.993,183.333 172.037 C 182.722 172.623,182.222 172.954,182.222 172.773 C 182.222 172.592,182.014 172.653,181.759 172.907 C 181.505 173.162,181.296 173.510,181.296 173.680 C 181.296 173.851,180.928 174.301,180.479 174.680 C 180.029 175.060,179.612 175.616,179.553 175.917 C 179.493 176.218,179.069 176.771,178.611 177.148 C 178.153 177.524,177.789 178.111,177.804 178.453 C 177.825 178.960,177.894 178.938,178.179 178.333 C 178.484 177.689,178.512 177.720,178.396 178.578 C 178.259 179.594,181.421 184.444,182.220 184.444 C 183.116 184.444,182.449 182.967,180.722 181.128 C 178.608 178.876,178.466 177.928,180.000 176.305 C 180.509 175.766,181.352 174.836,181.873 174.237 C 182.393 173.638,183.088 172.898,183.416 172.593 C 183.744 172.287,185.068 170.942,186.358 169.604 C 188.906 166.962,192.856 164.147,197.561 161.620 C 201.113 159.713,200.895 159.584,196.973 161.274 " stroke="none" fill="#2f4271" fill-rule="evenodd"></path><path id="path4" d="M174.259 112.963 C 173.757 113.179,173.697 113.293,174.074 113.317 C 174.380 113.337,173.963 113.658,173.148 114.032 C 172.333 114.406,171.511 114.623,171.321 114.514 C 171.131 114.405,171.297 114.190,171.691 114.036 C 172.085 113.882,172.213 113.744,171.975 113.730 C 171.085 113.676,170.283 114.162,170.767 114.461 C 171.068 114.647,170.574 115.074,169.329 115.705 C 167.263 116.752,166.873 116.862,167.222 116.296 C 167.677 115.561,166.776 115.947,165.926 116.852 C 165.448 117.361,165.189 117.778,165.351 117.778 C 165.513 117.778,165.439 118.028,165.185 118.333 C 164.646 118.983,163.907 119.089,164.295 118.461 C 164.460 118.194,164.396 118.134,164.125 118.302 C 163.887 118.449,163.797 118.740,163.925 118.948 C 164.054 119.156,163.582 119.936,162.877 120.682 C 159.226 124.540,158.380 126.738,156.301 137.778 C 154.625 146.681,154.484 147.194,154.011 146.087 C 153.802 145.597,153.771 145.740,153.911 146.538 C 154.027 147.196,153.623 150.166,152.984 153.346 C 151.644 160.025,151.583 160.924,152.500 160.569 C 153.335 160.246,155.518 159.922,154.907 160.212 C 154.653 160.333,154.444 160.586,154.444 160.775 C 154.444 160.982,154.701 160.979,155.093 160.768 C 155.449 160.575,156.874 160.130,158.258 159.779 C 159.891 159.364,160.607 159.033,160.296 158.835 C 160.031 158.667,159.981 158.521,160.185 158.511 C 161.004 158.469,168.400 156.727,169.332 156.356 C 170.088 156.056,170.391 155.618,170.578 154.554 C 171.148 151.307,171.463 150.448,171.296 152.593 C 171.152 154.453,171.201 154.357,171.868 151.481 C 172.783 147.539,173.001 145.859,172.562 146.130 C 172.375 146.245,172.222 146.062,172.222 145.723 C 172.222 145.327,172.421 145.182,172.778 145.319 C 173.151 145.462,173.333 145.303,173.333 144.834 C 173.333 144.450,173.176 144.080,172.984 144.012 C 172.790 143.944,172.732 143.164,172.855 142.258 C 173.049 140.826,173.133 140.706,173.547 141.273 C 173.961 141.838,174.051 141.704,174.280 140.177 C 174.463 138.957,174.405 138.353,174.086 138.156 C 173.728 137.934,173.726 137.412,174.078 135.696 C 174.622 133.046,175.140 131.966,175.211 133.333 C 175.246 134.003,175.351 133.850,175.591 132.778 C 175.774 131.963,176.013 130.907,176.124 130.432 C 176.274 129.792,176.202 129.642,175.848 129.855 C 175.463 130.087,175.460 130.032,175.835 129.569 C 176.107 129.232,176.219 128.475,176.105 127.738 C 175.949 126.721,175.983 126.623,176.288 127.222 C 176.575 127.787,176.615 127.568,176.458 126.296 C 176.317 125.148,176.365 124.794,176.615 125.160 C 176.893 125.564,177.040 125.363,177.237 124.309 C 177.380 123.550,177.393 122.825,177.267 122.699 C 177.140 122.572,177.037 122.941,177.037 123.519 C 177.037 124.096,176.933 124.464,176.807 124.338 C 176.680 124.211,176.790 122.978,177.050 121.598 C 177.403 119.727,177.596 119.276,177.810 119.822 C 178.148 120.687,178.233 119.990,178.322 115.623 L 178.378 112.913 176.504 113.110 C 175.192 113.248,174.907 113.211,175.556 112.987 C 176.313 112.725,176.347 112.664,175.741 112.656 C 175.333 112.650,174.667 112.788,174.259 112.963 M177.778 115.101 C 177.778 115.623,177.653 115.924,177.500 115.772 C 177.347 115.619,177.222 115.341,177.222 115.154 C 177.222 114.968,177.058 114.819,176.857 114.824 C 176.656 114.829,176.543 115.329,176.607 115.936 C 176.689 116.717,176.533 117.111,176.074 117.288 C 175.487 117.513,175.483 117.557,176.032 117.750 C 176.416 117.885,176.531 118.139,176.345 118.440 C 175.908 119.146,174.160 118.377,174.010 117.413 C 173.943 116.986,173.722 116.655,173.519 116.676 C 173.315 116.698,173.197 116.954,173.257 117.247 C 173.317 117.539,173.192 117.778,172.979 117.778 C 172.767 117.778,172.593 117.590,172.593 117.361 C 172.593 116.663,170.302 117.334,169.252 118.341 C 168.361 119.194,168.239 119.218,167.572 118.674 C 166.918 118.141,166.914 118.107,167.528 118.302 C 167.899 118.420,168.418 118.301,168.681 118.039 C 169.071 117.649,168.827 117.571,167.354 117.618 C 165.870 117.665,165.624 117.586,165.968 117.171 C 166.468 116.569,167.190 116.490,166.827 117.077 C 166.652 117.361,166.844 117.397,167.454 117.194 C 167.937 117.034,168.625 116.897,168.981 116.890 C 169.338 116.884,169.630 116.700,169.630 116.483 C 169.630 116.266,170.421 115.859,171.389 115.578 C 172.356 115.298,173.356 114.994,173.611 114.902 C 173.866 114.811,174.074 114.920,174.074 115.146 C 174.074 115.371,173.782 115.569,173.426 115.585 C 173.069 115.601,172.968 115.692,173.201 115.787 C 173.433 115.883,174.183 115.717,174.867 115.418 C 176.026 114.913,176.048 114.872,175.185 114.834 C 174.371 114.797,174.338 114.746,174.910 114.413 C 175.268 114.205,175.715 114.129,175.903 114.245 C 176.091 114.361,176.345 114.294,176.468 114.096 C 176.872 113.442,177.778 114.136,177.778 115.101 M170.966 120.568 C 173.026 120.669,174.435 122.222,172.466 122.222 C 171.732 122.222,171.732 122.232,172.435 122.905 C 173.128 123.569,173.165 123.569,173.758 122.893 C 174.317 122.255,174.416 122.247,174.961 122.792 C 175.676 123.506,175.713 123.757,175.093 123.676 C 174.146 123.553,173.667 123.715,173.893 124.080 C 174.021 124.287,174.263 124.372,174.431 124.268 C 175.013 123.908,175.197 125.939,174.805 128.397 C 174.339 131.309,174.238 131.521,173.455 131.221 C 172.953 131.028,172.941 130.928,173.374 130.589 C 174.098 130.021,174.135 125.185,173.415 125.185 C 173.045 125.185,172.935 125.635,173.009 126.840 C 173.065 127.750,172.994 128.611,172.852 128.753 C 172.709 128.896,172.593 128.823,172.593 128.592 C 172.593 128.361,172.343 128.267,172.037 128.385 C 171.633 128.540,171.481 128.341,171.481 127.654 C 171.481 126.432,172.121 126.033,172.330 127.124 C 172.432 127.650,172.511 127.445,172.542 126.574 C 172.592 125.190,171.556 124.537,170.926 125.556 C 170.568 126.134,169.896 125.990,170.129 125.384 C 170.248 125.072,169.962 124.547,169.454 124.148 C 168.587 123.466,168.584 123.442,169.285 122.841 C 169.678 122.505,169.987 122.020,169.971 121.763 C 169.948 121.392,169.903 121.391,169.755 121.759 C 169.309 122.863,168.148 122.251,168.148 120.913 C 168.148 119.667,168.189 119.626,168.981 120.058 C 169.440 120.308,170.333 120.537,170.966 120.568 M158.871 124.851 C 158.445 125.685,158.160 126.432,158.238 126.509 C 158.315 126.587,158.741 125.904,159.185 124.992 C 160.194 122.914,159.921 122.792,158.871 124.851 M159.737 130.370 C 159.843 130.777,159.764 131.213,159.560 131.339 C 159.356 131.465,159.266 131.969,159.360 132.460 C 159.454 132.950,159.386 133.440,159.210 133.549 C 159.033 133.658,158.889 134.091,158.889 134.512 C 158.889 135.139,158.986 135.196,159.428 134.828 C 160.158 134.223,160.741 134.656,160.741 135.803 C 160.741 136.665,160.627 136.734,159.444 136.596 C 158.731 136.513,158.148 136.481,158.148 136.526 C 158.148 137.060,158.714 137.778,159.136 137.778 C 159.431 137.778,159.576 137.935,159.458 138.126 C 159.079 138.739,157.042 137.294,157.039 136.411 C 157.038 135.964,157.188 135.506,157.373 135.392 C 157.557 135.278,157.614 134.825,157.499 134.386 C 157.343 133.787,157.414 133.664,157.782 133.892 C 158.149 134.118,158.208 134.023,158.014 133.519 C 157.761 132.858,158.834 129.634,159.309 129.631 C 159.438 129.630,159.630 129.963,159.737 130.370 M156.623 131.512 C 156.599 131.801,156.590 132.136,156.604 132.258 C 156.617 132.379,156.390 133.296,156.099 134.295 C 155.659 135.799,155.656 135.997,156.078 135.446 C 156.628 134.728,157.229 131.549,156.880 131.201 C 156.763 131.083,156.647 131.224,156.623 131.512 M160.735 132.315 C 160.730 132.989,160.661 133.042,160.370 132.593 C 159.906 131.875,159.906 131.481,160.370 131.481 C 160.574 131.481,160.738 131.856,160.735 132.315 M174.860 135.000 C 174.830 135.407,174.719 136.157,174.614 136.667 L 174.424 137.593 174.820 136.684 C 175.038 136.184,175.149 135.434,175.066 135.017 C 174.920 134.279,174.914 134.278,174.860 135.000 M155.432 136.914 C 155.296 137.049,155.202 137.674,155.223 138.302 L 155.261 139.444 155.565 138.151 C 155.882 136.803,155.849 136.497,155.432 136.914 M174.074 139.444 C 174.074 139.954,173.907 140.370,173.704 140.370 C 173.290 140.370,173.196 139.150,173.580 138.765 C 173.989 138.357,174.074 138.475,174.074 139.444 M171.674 145.462 C 171.550 146.125,171.289 146.667,171.094 146.667 C 170.900 146.667,170.741 146.843,170.741 147.059 C 170.741 147.275,170.907 147.348,171.111 147.222 C 171.682 146.869,171.549 148.133,170.953 148.730 C 170.495 149.187,170.402 149.171,170.255 148.611 C 170.162 148.254,170.053 148.713,170.014 149.630 C 169.947 151.169,169.914 151.221,169.581 150.312 C 169.316 149.590,169.373 148.964,169.793 147.959 C 170.232 146.908,170.252 146.633,169.882 146.775 C 169.318 146.991,169.498 144.781,170.075 144.408 C 170.263 144.286,170.503 143.640,170.609 142.972 C 170.714 142.304,170.995 141.546,171.233 141.289 C 171.751 140.730,172.043 143.494,171.674 145.462 M170.000 143.148 C 170.000 143.827,169.802 144.074,169.259 144.074 C 168.848 144.074,168.519 143.827,168.519 143.519 C 168.519 143.213,168.769 142.963,169.074 142.963 C 169.380 142.963,169.630 142.796,169.630 142.593 C 169.630 142.389,169.713 142.222,169.815 142.222 C 169.917 142.222,170.000 142.639,170.000 143.148 M169.259 145.556 C 169.259 145.759,169.009 145.926,168.704 145.926 C 168.398 145.926,168.148 145.759,168.148 145.556 C 168.148 145.352,168.398 145.185,168.704 145.185 C 169.009 145.185,169.259 145.352,169.259 145.556 M156.151 148.796 C 156.422 149.153,156.646 149.694,156.649 150.000 C 156.655 150.494,156.615 150.494,156.296 150.000 C 155.985 149.518,155.937 149.525,155.932 150.053 C 155.928 150.388,156.218 150.779,156.574 150.923 C 157.150 151.156,157.129 151.221,156.389 151.507 C 155.903 151.694,155.556 152.142,155.556 152.581 C 155.556 153.501,156.126 153.570,156.464 152.691 C 156.666 152.163,156.813 152.262,157.290 153.247 C 157.609 153.905,158.099 154.444,158.380 154.444 C 158.660 154.444,158.889 154.694,158.889 155.000 C 158.889 155.306,159.139 155.556,159.444 155.556 C 159.750 155.556,160.000 155.722,160.000 155.926 C 160.000 156.647,158.689 156.284,158.329 155.463 C 157.892 154.468,156.527 154.196,155.291 154.857 C 153.680 155.719,153.148 151.637,154.654 149.973 C 154.946 149.650,155.185 149.108,155.185 148.767 C 155.185 147.970,155.532 147.981,156.151 148.796 M170.697 155.845 C 170.575 156.581,170.629 156.926,170.835 156.721 C 171.021 156.534,171.112 155.988,171.036 155.506 C 170.919 154.764,170.867 154.816,170.697 155.845 M157.171 155.741 C 157.319 156.125,157.146 156.296,156.610 156.296 C 155.963 156.296,155.911 156.204,156.296 155.741 C 156.550 155.435,156.802 155.185,156.858 155.185 C 156.913 155.185,157.054 155.435,157.171 155.741 M161.634 156.645 C 161.005 156.796,160.255 157.066,159.968 157.247 C 159.122 157.777,157.101 157.673,157.316 157.111 C 157.438 156.793,157.853 156.706,158.530 156.854 C 159.105 156.981,159.666 156.907,159.801 156.688 C 159.935 156.473,160.659 156.313,161.411 156.334 L 162.778 156.372 161.634 156.645 M163.704 158.148 C 162.971 158.383,162.932 158.445,163.519 158.445 C 163.926 158.445,164.676 158.311,165.185 158.148 C 165.918 157.913,165.957 157.852,165.370 157.852 C 164.963 157.852,164.213 157.985,163.704 158.148 M158.704 159.235 C 158.296 159.399,157.380 159.632,156.667 159.752 C 155.389 159.968,155.391 159.964,156.852 159.458 C 158.441 158.908,159.970 158.724,158.704 159.235 M184.606 163.796 L 183.519 165.000 184.722 163.912 C 185.844 162.898,186.096 162.593,185.810 162.593 C 185.746 162.593,185.205 163.134,184.606 163.796 M215.331 166.359 C 215.152 166.649,215.264 166.716,215.668 166.561 C 216.001 166.433,216.371 166.488,216.491 166.683 C 216.612 166.878,216.387 167.037,215.991 167.037 C 215.518 167.037,215.211 167.354,215.095 167.963 C 214.973 168.599,215.082 168.889,215.444 168.889 C 215.747 168.889,215.858 168.708,215.705 168.461 C 215.540 168.194,215.604 168.134,215.875 168.302 C 216.113 168.449,216.215 168.720,216.102 168.904 C 215.988 169.088,216.158 169.640,216.479 170.130 C 216.855 170.704,216.989 171.443,216.855 172.206 C 216.720 172.968,216.782 173.306,217.027 173.154 C 217.808 172.672,217.372 174.008,216.447 174.933 C 215.714 175.666,215.242 175.845,214.455 175.687 C 213.880 175.572,213.312 175.661,213.171 175.889 C 213.033 176.113,212.651 176.296,212.324 176.296 C 211.996 176.296,211.834 176.191,211.963 176.062 C 212.092 175.933,211.766 175.489,211.240 175.075 C 210.714 174.661,210.059 173.808,209.786 173.180 C 209.498 172.518,209.282 172.305,209.274 172.674 C 209.264 173.083,209.062 173.234,208.707 173.098 C 208.392 172.977,208.057 173.141,207.927 173.478 C 207.802 173.803,207.568 173.988,207.407 173.889 C 207.164 173.739,206.795 174.257,206.483 175.185 C 205.960 176.744,205.893 177.596,206.235 178.347 C 206.485 178.895,206.505 179.316,206.288 179.450 C 205.909 179.684,205.990 180.928,206.410 181.348 C 206.551 181.490,206.689 181.119,206.717 180.525 C 206.759 179.620,206.794 179.583,206.931 180.298 C 207.020 180.768,206.904 181.381,206.672 181.660 C 206.346 182.053,206.507 182.615,207.381 184.140 C 208.554 186.185,208.958 186.369,207.936 184.392 C 207.615 183.772,207.426 183.191,207.515 183.102 C 207.605 183.012,207.889 183.447,208.146 184.068 C 208.795 185.635,212.525 188.993,213.292 188.702 C 213.757 188.525,213.791 188.574,213.445 188.922 C 212.952 189.419,211.855 188.863,209.815 187.082 C 208.864 186.253,208.889 186.314,209.983 187.504 C 210.687 188.270,211.812 189.095,212.483 189.337 C 213.155 189.580,213.704 189.898,213.704 190.045 C 213.704 190.393,215.298 190.733,217.907 190.944 C 219.597 191.080,220.000 191.005,220.000 190.556 C 220.000 189.919,220.581 189.813,220.935 190.385 C 221.066 190.597,221.534 190.670,221.976 190.546 C 223.629 190.082,224.815 189.530,224.815 189.223 C 224.815 189.050,224.387 189.070,223.865 189.268 C 222.328 189.853,222.300 189.653,223.808 188.858 C 224.578 188.451,225.381 188.225,225.592 188.356 C 225.803 188.486,226.064 188.254,226.173 187.841 C 226.281 187.427,226.626 186.990,226.941 186.869 C 227.422 186.684,227.439 186.753,227.047 187.306 C 226.791 187.667,227.181 187.296,227.915 186.481 C 228.648 185.667,229.251 184.792,229.254 184.537 C 229.257 184.282,229.424 184.074,229.625 184.074 C 229.827 184.074,230.098 183.407,230.228 182.593 C 230.358 181.778,230.599 181.111,230.762 181.111 C 231.207 181.111,230.838 174.292,230.384 174.140 C 230.170 174.069,230.090 173.858,230.205 173.672 C 230.320 173.486,230.249 173.333,230.048 173.333 C 229.846 173.333,229.628 172.971,229.563 172.529 C 229.498 172.087,229.213 171.648,228.930 171.555 C 228.618 171.452,228.517 171.550,228.674 171.804 C 228.816 172.034,228.845 172.222,228.739 172.222 C 228.632 172.222,228.355 171.869,228.124 171.437 C 227.835 170.896,227.830 170.729,228.107 170.900 C 228.356 171.055,228.428 170.935,228.294 170.587 C 228.175 170.277,227.885 170.060,227.650 170.104 C 227.415 170.149,227.264 169.977,227.315 169.722 C 227.366 169.468,227.282 169.279,227.130 169.303 C 226.410 169.417,225.903 169.226,226.095 168.914 C 226.212 168.725,226.113 168.449,225.875 168.302 C 225.604 168.134,225.540 168.194,225.705 168.461 C 226.090 169.084,225.798 169.000,223.816 167.917 C 222.838 167.383,222.412 167.034,222.870 167.142 C 223.329 167.250,223.704 167.206,223.704 167.046 C 223.704 166.609,222.255 166.314,222.016 166.701 C 221.901 166.886,221.526 167.025,221.182 167.011 C 220.661 166.989,220.675 166.938,221.269 166.705 C 221.931 166.446,221.936 166.408,221.332 166.176 C 220.264 165.766,217.857 165.869,218.519 166.296 C 218.965 166.585,218.907 166.656,218.219 166.661 C 217.742 166.664,217.465 166.503,217.593 166.296 C 217.726 166.081,217.357 165.926,216.710 165.926 C 216.099 165.926,215.479 166.121,215.331 166.359 M185.864 168.992 C 183.332 171.216,182.410 172.134,181.546 173.291 C 180.212 175.077,180.667 174.709,184.239 171.111 C 187.647 167.678,188.242 166.902,185.864 168.992 M178.609 177.500 C 177.921 178.360,177.732 179.506,178.277 179.506 C 178.590 179.506,178.718 179.243,178.609 178.825 C 178.511 178.451,178.638 177.895,178.891 177.591 C 179.143 177.286,179.267 177.037,179.165 177.037 C 179.063 177.037,178.813 177.245,178.609 177.500 M215.215 189.630 C 215.403 189.630,215.556 189.796,215.556 190.000 C 215.556 190.536,215.061 190.455,214.237 189.785 C 213.580 189.249,213.576 189.217,214.197 189.414 C 214.570 189.533,215.028 189.630,215.215 189.630 M107.921 273.704 C 107.921 276.250,107.980 277.292,108.052 276.019 C 108.124 274.745,108.124 272.662,108.052 271.389 C 107.980 270.116,107.921 271.157,107.921 273.704 M129.007 285.556 C 129.007 286.880,129.075 287.421,129.157 286.759 C 129.239 286.097,129.239 285.014,129.157 284.352 C 129.075 283.690,129.007 284.231,129.007 285.556 M107.893 286.111 C 107.895 287.333,107.964 287.789,108.046 287.123 C 108.129 286.457,108.127 285.457,108.042 284.901 C 107.958 284.344,107.890 284.889,107.893 286.111 M116.944 293.224 C 117.403 293.313,118.153 293.313,118.611 293.224 C 119.069 293.136,118.694 293.064,117.778 293.064 C 116.861 293.064,116.486 293.136,116.944 293.224 " stroke="none" fill="#283c63" fill-rule="evenodd"></path></g></svg>